<svg xmlns="http://www.w3.org/2000/svg" xmlns:xlink="http://www.w3.org/1999/xlink" viewBox="0 0 501.49 106.55"><defs><style>.cls-1{isolation:isolate;}.cls-2{opacity:0.72;}.cls-157,.cls-163,.cls-2,.cls-80{mix-blend-mode:multiply;}.cls-3{fill:#fff;opacity:0;}.cls-4{fill:#fcfdfc;opacity:0.01;}.cls-5{fill:#f8fbfa;opacity:0.03;}.cls-6{fill:#f5f9f7;opacity:0.04;}.cls-7{fill:#f2f7f4;opacity:0.05;}.cls-8{fill:#eef5f2;opacity:0.07;}.cls-9{fill:#ebf3ef;opacity:0.08;}.cls-10{fill:#e8f1ed;opacity:0.09;}.cls-11{fill:#e4efea;opacity:0.11;}.cls-12{fill:#e1ede7;opacity:0.12;}.cls-13{fill:#ddebe5;opacity:0.13;}.cls-14{fill:#dae9e2;opacity:0.14;}.cls-15{fill:#d7e7df;opacity:0.16;}.cls-16{fill:#d3e5dd;opacity:0.17;}.cls-17{fill:#d0e3da;opacity:0.18;}.cls-18{fill:#cde1d8;opacity:0.2;}.cls-19{fill:#c9dfd5;opacity:0.21;}.cls-20{fill:#c6ddd2;opacity:0.22;}.cls-21{fill:#c3dbd0;opacity:0.24;}.cls-22{fill:#bfd9cd;opacity:0.25;}.cls-23{fill:#bcd7ca;opacity:0.26;}.cls-24{fill:#b9d5c8;opacity:0.28;}.cls-25{fill:#b5d3c5;opacity:0.29;}.cls-26{fill:#b2d1c2;opacity:0.3;}.cls-27{fill:#aecfc0;opacity:0.32;}.cls-28{fill:#abcdbd;opacity:0.33;}.cls-29{fill:#a8cbbb;opacity:0.34;}.cls-30{fill:#a4c9b8;opacity:0.36;}.cls-31{fill:#a1c7b5;opacity:0.37;}.cls-32{fill:#9ec5b3;opacity:0.38;}.cls-33{fill:#9ac3b0;opacity:0.39;}.cls-34{fill:#97c1ad;opacity:0.41;}.cls-35{fill:#94bfab;opacity:0.42;}.cls-36{fill:#90bda8;opacity:0.43;}.cls-37{fill:#8dbba6;opacity:0.45;}.cls-38{fill:#8ab9a3;opacity:0.46;}.cls-39{fill:#86b7a0;opacity:0.47;}.cls-40{fill:#83b59e;opacity:0.49;}.cls-41{fill:#7fb39b;opacity:0.5;}.cls-42{fill:#7cb298;opacity:0.51;}.cls-43{fill:#79b096;opacity:0.53;}.cls-44{fill:#75ae93;opacity:0.54;}.cls-45{fill:#72ac90;opacity:0.55;}.cls-46{fill:#6faa8e;opacity:0.57;}.cls-47{fill:#6ba88b;opacity:0.58;}.cls-48{fill:#68a689;opacity:0.59;}.cls-49{fill:#65a486;opacity:0.61;}.cls-50{fill:#61a283;opacity:0.62;}.cls-51{fill:#5ea081;opacity:0.63;}.cls-52{fill:#5b9e7e;opacity:0.64;}.cls-53{fill:#579c7b;opacity:0.66;}.cls-54{fill:#549a79;opacity:0.67;}.cls-55{fill:#519876;opacity:0.68;}.cls-56{fill:#4d9674;opacity:0.7;}.cls-57{fill:#4a9471;opacity:0.71;}.cls-58{fill:#46926e;opacity:0.72;}.cls-59{fill:#43906c;opacity:0.74;}.cls-60{fill:#408e69;opacity:0.75;}.cls-61{fill:#3c8c66;opacity:0.76;}.cls-62{fill:#398a64;opacity:0.78;}.cls-63{fill:#368861;opacity:0.79;}.cls-64{fill:#32865e;opacity:0.8;}.cls-65{fill:#2f845c;opacity:0.82;}.cls-66{fill:#2c8259;opacity:0.83;}.cls-67{fill:#288057;opacity:0.84;}.cls-68{fill:#257e54;opacity:0.86;}.cls-69{fill:#227c51;opacity:0.87;}.cls-70{fill:#1e7a4f;opacity:0.88;}.cls-71{fill:#1b784c;opacity:0.89;}.cls-72{fill:#177649;opacity:0.91;}.cls-73{fill:#147447;opacity:0.92;}.cls-74{fill:#117244;opacity:0.93;}.cls-75{fill:#0d7042;opacity:0.95;}.cls-76{fill:#0a6e3f;opacity:0.96;}.cls-77{fill:#076c3c;opacity:0.97;}.cls-78{fill:#036a3a;opacity:0.99;}.cls-79{fill:#006837;}.cls-80{opacity:0.3;}.cls-81{fill:#fdfefc;opacity:0.01;}.cls-82{fill:#fcfdfa;opacity:0.02;}.cls-83{fill:#fafdf7;opacity:0.02;}.cls-84{fill:#f9fcf5;opacity:0.03;}.cls-85{fill:#f7fbf2;opacity:0.04;}.cls-86{fill:#f6faf0;opacity:0.05;}.cls-87{fill:#f4faed;opacity:0.05;}.cls-88{fill:#f3f9eb;opacity:0.06;}.cls-89{fill:#f1f8e8;opacity:0.07;}.cls-90{fill:#f0f7e6;opacity:0.08;}.cls-91{fill:#eef7e3;opacity:0.08;}.cls-92{fill:#edf6e1;opacity:0.09;}.cls-93{fill:#ebf5de;opacity:0.1;}.cls-94{fill:#eaf4dc;opacity:0.11;}.cls-95{fill:#e8f4d9;opacity:0.11;}.cls-96{fill:#e7f3d7;opacity:0.12;}.cls-97{fill:#e5f2d4;opacity:0.13;}.cls-98{fill:#e4f1d2;opacity:0.14;}.cls-99{fill:#e2f1cf;opacity:0.15;}.cls-100{fill:#e1f0cc;opacity:0.15;}.cls-101{fill:#dfefca;opacity:0.16;}.cls-102{fill:#deeec7;opacity:0.17;}.cls-103{fill:#dceec5;opacity:0.18;}.cls-104{fill:#dbedc2;opacity:0.18;}.cls-105{fill:#d9ecc0;opacity:0.19;}.cls-106{fill:#d8ebbd;opacity:0.2;}.cls-107{fill:#d6ebbb;opacity:0.21;}.cls-108{fill:#d5eab8;opacity:0.21;}.cls-109{fill:#d3e9b6;opacity:0.22;}.cls-110{fill:#d2e8b3;opacity:0.23;}.cls-111{fill:#d0e8b1;opacity:0.24;}.cls-112{fill:#cfe7ae;opacity:0.24;}.cls-113{fill:#cde6ac;opacity:0.25;}.cls-114{fill:#cce5a9;opacity:0.26;}.cls-115{fill:#cae5a7;opacity:0.27;}.cls-116{fill:#c9e4a4;opacity:0.27;}.cls-117{fill:#c7e3a2;opacity:0.28;}.cls-118{fill:#c5e29f;opacity:0.29;}.cls-119{fill:#c4e29c;opacity:0.3;}.cls-120{fill:#c2e19a;opacity:0.31;}.cls-121{fill:#c1e097;opacity:0.31;}.cls-122{fill:#bfe095;opacity:0.32;}.cls-123{fill:#bedf92;opacity:0.33;}.cls-124{fill:#bcde90;opacity:0.34;}.cls-125{fill:#bbdd8d;opacity:0.34;}.cls-126{fill:#b9dd8b;opacity:0.35;}.cls-127{fill:#b8dc88;opacity:0.36;}.cls-128{fill:#b6db86;opacity:0.37;}.cls-129{fill:#b5da83;opacity:0.37;}.cls-130{fill:#b3da81;opacity:0.38;}.cls-131{fill:#b2d97e;opacity:0.39;}.cls-132{fill:#b0d87c;opacity:0.4;}.cls-133{fill:#afd779;opacity:0.4;}.cls-134{fill:#add777;opacity:0.41;}.cls-135{fill:#acd674;opacity:0.42;}.cls-136{fill:#aad572;opacity:0.43;}.cls-137{fill:#a9d46f;opacity:0.43;}.cls-138{fill:#a7d46c;opacity:0.44;}.cls-139{fill:#a6d36a;opacity:0.45;}.cls-140{fill:#a4d267;opacity:0.46;}.cls-141{fill:#a3d165;opacity:0.47;}.cls-142{fill:#a1d162;opacity:0.47;}.cls-143{fill:#a0d060;opacity:0.48;}.cls-144{fill:#9ecf5d;opacity:0.49;}.cls-145{fill:#9dce5b;opacity:0.5;}.cls-146{fill:#9bce58;opacity:0.5;}.cls-147{fill:#9acd56;opacity:0.51;}.cls-148{fill:#98cc53;opacity:0.52;}.cls-149{fill:#97cb51;opacity:0.53;}.cls-150{fill:#95cb4e;opacity:0.53;}.cls-151{fill:#94ca4c;opacity:0.54;}.cls-152{fill:#92c949;opacity:0.55;}.cls-153{fill:#91c847;opacity:0.56;}.cls-154{fill:#8fc844;opacity:0.56;}.cls-155{fill:#8ec742;opacity:0.57;}.cls-156{fill:#8cc63f;opacity:0.58;}.cls-157,.cls-163{opacity:0.5;}.cls-157{fill:url(#radial-gradient);}.cls-158{fill:url(#New_Gradient_Swatch_2);}.cls-159{fill:url(#New_Gradient_Swatch_2-2);}.cls-160{mix-blend-mode:screen;}.cls-161{fill:url(#linear-gradient);}.cls-162{fill:url(#linear-gradient-2);}.cls-163{fill:url(#linear-gradient-3);}.cls-164{fill:url(#linear-gradient-4);}.cls-165{fill:url(#linear-gradient-5);}.cls-166{fill:url(#linear-gradient-6);}.cls-167{fill:url(#linear-gradient-7);}</style><radialGradient id="radial-gradient" cx="389.71" cy="85903.9" r="156.23" gradientTransform="translate(-277.56 -7599.92) scale(1.2 0.09)" gradientUnits="userSpaceOnUse"><stop offset="0" stop-color="#8cc63f"/><stop offset="0.39" stop-color="#8dc741"/><stop offset="0.53" stop-color="#91c948"/><stop offset="0.63" stop-color="#98cc53"/><stop offset="0.72" stop-color="#a2d164"/><stop offset="0.79" stop-color="#b0d87a"/><stop offset="0.85" stop-color="#c0e096"/><stop offset="0.9" stop-color="#d3e9b6"/><stop offset="0.95" stop-color="#e9f4da"/><stop offset="0.99" stop-color="#fff"/></radialGradient><linearGradient id="New_Gradient_Swatch_2" x1="1.81" y1="79.88" x2="375.8" y2="79.88" gradientUnits="userSpaceOnUse"><stop offset="0" stop-color="#8cc63f"/><stop offset="0.01" stop-color="#7fc140"/><stop offset="0.05" stop-color="#59b341"/><stop offset="0.09" stop-color="#38a743"/><stop offset="0.14" stop-color="#209e44"/><stop offset="0.18" stop-color="#0e9744"/><stop offset="0.23" stop-color="#039345"/><stop offset="0.28" stop-color="#009245"/><stop offset="0.69" stop-color="#009245"/><stop offset="1" stop-color="#006837"/></linearGradient><linearGradient id="New_Gradient_Swatch_2-2" x1="1.81" y1="48.75" x2="375.8" y2="48.75" xlink:href="#New_Gradient_Swatch_2"/><linearGradient id="linear-gradient" x1="1.81" y1="24.48" x2="375.8" y2="24.48" gradientUnits="userSpaceOnUse"><stop offset="0"/><stop offset="0" stop-color="#000800"/><stop offset="0.02" stop-color="#003600"/><stop offset="0.05" stop-color="#006100"/><stop offset="0.07" stop-color="#018701"/><stop offset="0.1" stop-color="#01a701"/><stop offset="0.13" stop-color="#01c301"/><stop offset="0.16" stop-color="#01d901"/><stop offset="0.2" stop-color="#01ea01"/><stop offset="0.25" stop-color="#01f501"/><stop offset="0.31" stop-color="#01fc01"/><stop offset="0.5" stop-color="#01fe01"/><stop offset="0.68" stop-color="#01fc01"/><stop offset="0.74" stop-color="#01f501"/><stop offset="0.79" stop-color="#01ea01"/><stop offset="0.82" stop-color="#01d901"/><stop offset="0.86" stop-color="#01c301"/><stop offset="0.88" stop-color="#01a701"/><stop offset="0.91" stop-color="#018701"/><stop offset="0.93" stop-color="#006100"/><stop offset="0.95" stop-color="#003600"/><stop offset="0.97" stop-color="#000800"/><stop offset="0.98"/></linearGradient><linearGradient id="linear-gradient-2" x1="5.56" y1="17.62" x2="389.28" y2="17.62" gradientUnits="userSpaceOnUse"><stop offset="0" stop-color="#40fd9e"/><stop offset="0.2" stop-color="#31fd7a"/><stop offset="0.43" stop-color="#23fd56"/><stop offset="0.65" stop-color="#18fd3d"/><stop offset="0.84" stop-color="#12fd2d"/><stop offset="1" stop-color="#10fd28"/></linearGradient><linearGradient id="linear-gradient-3" x1="1.81" y1="25.29" x2="375.8" y2="25.29" gradientUnits="userSpaceOnUse"><stop offset="0" stop-color="#f1f1f2"/><stop offset="0" stop-color="#efedf1"/><stop offset="0.03" stop-color="#d2c4e4"/><stop offset="0.05" stop-color="#baa0d9"/><stop offset="0.08" stop-color="#a380ce"/><stop offset="0.11" stop-color="#9164c6"/><stop offset="0.15" stop-color="#824ebf"/><stop offset="0.19" stop-color="#763db9"/><stop offset="0.25" stop-color="#6e32b6"/><stop offset="0.32" stop-color="#692bb4"/><stop offset="0.52" stop-color="#6829b3"/><stop offset="0.7" stop-color="#692bb4"/><stop offset="0.76" stop-color="#6e32b6"/><stop offset="0.81" stop-color="#773eba"/><stop offset="0.85" stop-color="#834fc1"/><stop offset="0.89" stop-color="#9366c9"/><stop offset="0.92" stop-color="#a682d2"/><stop offset="0.95" stop-color="#bea3de"/><stop offset="0.97" stop-color="#d9c9ec"/><stop offset="0.99" stop-color="#f7f3fb"/><stop offset="1" stop-color="#fff"/></linearGradient><linearGradient id="linear-gradient-4" x1="1.81" y1="24.48" x2="375.8" y2="24.48" gradientUnits="userSpaceOnUse"><stop offset="0" stop-color="#f1f1f2"/><stop offset="0.11" stop-color="#eae9eb"/><stop offset="0.28" stop-color="#e7e6e8"/><stop offset="0.29" stop-color="#e7e6e8"/><stop offset="0.69" stop-color="#d3d1d4"/><stop offset="1" stop-color="#bfbcc0"/></linearGradient><linearGradient id="linear-gradient-5" x1="1.81" y1="18.43" x2="375.8" y2="18.43" xlink:href="#linear-gradient-4"/><linearGradient id="linear-gradient-6" x1="1.81" y1="19.24" x2="375.8" y2="19.24" gradientUnits="userSpaceOnUse"><stop offset="0"/><stop offset="0" stop-color="#090909"/><stop offset="0.02" stop-color="#373737"/><stop offset="0.05" stop-color="#626262"/><stop offset="0.07" stop-color="#888"/><stop offset="0.1" stop-color="#a8a8a8"/><stop offset="0.13" stop-color="#c4c4c4"/><stop offset="0.16" stop-color="#dadada"/><stop offset="0.2" stop-color="#ebebeb"/><stop offset="0.25" stop-color="#f6f6f6"/><stop offset="0.31" stop-color="#fdfdfd"/><stop offset="0.5" stop-color="#fff"/><stop offset="0.68" stop-color="#fdfdfd"/><stop offset="0.74" stop-color="#f6f6f6"/><stop offset="0.79" stop-color="#ebebeb"/><stop offset="0.82" stop-color="#dadada"/><stop offset="0.86" stop-color="#c4c4c4"/><stop offset="0.88" stop-color="#a8a8a8"/><stop offset="0.91" stop-color="#888"/><stop offset="0.93" stop-color="#626262"/><stop offset="0.95" stop-color="#373737"/><stop offset="0.97" stop-color="#090909"/><stop offset="0.98"/></linearGradient><linearGradient id="linear-gradient-7" x1="5.56" y1="12.39" x2="389.28" y2="12.39" gradientUnits="userSpaceOnUse"><stop offset="0" stop-color="#fff"/><stop offset="0.44" stop-color="#f6f6f7"/><stop offset="1" stop-color="#f1f1f2"/></linearGradient></defs><g class="cls-1"><g id="Layer_2" data-name="Layer 2"><g id="Layer_3" data-name="Layer 3"><g class="cls-2"><ellipse class="cls-3" cx="250.74" cy="81.5" rx="250.74" ry="25.05"/><ellipse class="cls-4" cx="249.93" cy="81.48" rx="249.91" ry="24.89"/><ellipse class="cls-5" cx="249.11" cy="81.47" rx="249.08" ry="24.73"/><ellipse class="cls-6" cx="248.29" cy="81.45" rx="248.25" ry="24.57"/><ellipse class="cls-7" cx="247.47" cy="81.43" rx="247.41" ry="24.41"/><ellipse class="cls-8" cx="246.65" cy="81.42" rx="246.58" ry="24.26"/><ellipse class="cls-9" cx="245.84" cy="81.4" rx="245.75" ry="24.1"/><ellipse class="cls-10" cx="245.02" cy="81.38" rx="244.92" ry="23.94"/><ellipse class="cls-11" cx="244.2" cy="81.37" rx="244.09" ry="23.78"/><ellipse class="cls-12" cx="243.38" cy="81.35" rx="243.25" ry="23.63"/><ellipse class="cls-13" cx="242.56" cy="81.33" rx="242.42" ry="23.47"/><ellipse class="cls-14" cx="241.75" cy="81.32" rx="241.59" ry="23.31"/><ellipse class="cls-15" cx="240.93" cy="81.3" rx="240.76" ry="23.15"/><ellipse class="cls-16" cx="240.11" cy="81.28" rx="239.92" ry="22.99"/><ellipse class="cls-17" cx="239.29" cy="81.27" rx="239.09" ry="22.84"/><ellipse class="cls-18" cx="238.48" cy="81.25" rx="238.26" ry="22.68"/><ellipse class="cls-19" cx="237.66" cy="81.23" rx="237.43" ry="22.52"/><ellipse class="cls-20" cx="236.84" cy="81.22" rx="236.59" ry="22.36"/><ellipse class="cls-21" cx="236.02" cy="81.2" rx="235.76" ry="22.2"/><ellipse class="cls-22" cx="235.2" cy="81.19" rx="234.93" ry="22.05"/><ellipse class="cls-23" cx="234.39" cy="81.17" rx="234.1" ry="21.89"/><ellipse class="cls-24" cx="233.57" cy="81.15" rx="233.26" ry="21.73"/><ellipse class="cls-25" cx="232.75" cy="81.14" rx="232.43" ry="21.57"/><ellipse class="cls-26" cx="231.93" cy="81.12" rx="231.6" ry="21.41"/><ellipse class="cls-27" cx="231.11" cy="81.1" rx="230.77" ry="21.26"/><ellipse class="cls-28" cx="230.3" cy="81.09" rx="229.93" ry="21.1"/><ellipse class="cls-29" cx="229.48" cy="81.07" rx="229.1" ry="20.94"/><ellipse class="cls-30" cx="228.66" cy="81.05" rx="228.27" ry="20.78"/><ellipse class="cls-31" cx="227.84" cy="81.04" rx="227.44" ry="20.63"/><ellipse class="cls-32" cx="227.02" cy="81.02" rx="226.6" ry="20.47"/><ellipse class="cls-33" cx="226.21" cy="81" rx="225.77" ry="20.31"/><ellipse class="cls-34" cx="225.39" cy="80.99" rx="224.94" ry="20.15"/><ellipse class="cls-35" cx="224.57" cy="80.97" rx="224.11" ry="19.99"/><ellipse class="cls-36" cx="223.75" cy="80.95" rx="223.28" ry="19.84"/><ellipse class="cls-37" cx="222.93" cy="80.94" rx="222.44" ry="19.68"/><ellipse class="cls-38" cx="222.12" cy="80.92" rx="221.61" ry="19.52"/><ellipse class="cls-39" cx="221.3" cy="80.9" rx="220.78" ry="19.36"/><ellipse class="cls-40" cx="220.48" cy="80.89" rx="219.95" ry="19.2"/><ellipse class="cls-41" cx="219.66" cy="80.87" rx="219.11" ry="19.05"/><ellipse class="cls-42" cx="218.84" cy="80.86" rx="218.28" ry="18.89"/><ellipse class="cls-43" cx="218.03" cy="80.84" rx="217.45" ry="18.73"/><ellipse class="cls-44" cx="217.21" cy="80.82" rx="216.62" ry="18.57"/><ellipse class="cls-45" cx="216.39" cy="80.81" rx="215.78" ry="18.41"/><ellipse class="cls-46" cx="215.57" cy="80.79" rx="214.95" ry="18.26"/><ellipse class="cls-47" cx="214.75" cy="80.77" rx="214.12" ry="18.1"/><ellipse class="cls-48" cx="213.94" cy="80.76" rx="213.29" ry="17.94"/><ellipse class="cls-49" cx="213.12" cy="80.74" rx="212.45" ry="17.78"/><ellipse class="cls-50" cx="212.3" cy="80.72" rx="211.62" ry="17.62"/><ellipse class="cls-51" cx="211.48" cy="80.71" rx="210.79" ry="17.47"/><ellipse class="cls-52" cx="210.67" cy="80.69" rx="209.96" ry="17.31"/><ellipse class="cls-53" cx="209.85" cy="80.67" rx="209.12" ry="17.15"/><ellipse class="cls-54" cx="209.03" cy="80.66" rx="208.29" ry="16.99"/><ellipse class="cls-55" cx="208.21" cy="80.64" rx="207.46" ry="16.84"/><ellipse class="cls-56" cx="207.39" cy="80.62" rx="206.63" ry="16.68"/><ellipse class="cls-57" cx="206.58" cy="80.61" rx="205.79" ry="16.52"/><ellipse class="cls-58" cx="205.76" cy="80.59" rx="204.96" ry="16.36"/><ellipse class="cls-59" cx="204.94" cy="80.57" rx="204.13" ry="16.2"/><ellipse class="cls-60" cx="204.12" cy="80.56" rx="203.3" ry="16.05"/><ellipse class="cls-61" cx="203.3" cy="80.54" rx="202.47" ry="15.89"/><ellipse class="cls-62" cx="202.49" cy="80.53" rx="201.63" ry="15.73"/><ellipse class="cls-63" cx="201.67" cy="80.51" rx="200.8" ry="15.57"/><ellipse class="cls-64" cx="200.85" cy="80.49" rx="199.97" ry="15.41"/><ellipse class="cls-65" cx="200.03" cy="80.48" rx="199.14" ry="15.26"/><ellipse class="cls-66" cx="199.21" cy="80.46" rx="198.3" ry="15.1"/><ellipse class="cls-67" cx="198.4" cy="80.44" rx="197.47" ry="14.94"/><ellipse class="cls-68" cx="197.58" cy="80.43" rx="196.64" ry="14.78"/><ellipse class="cls-69" cx="196.76" cy="80.41" rx="195.81" ry="14.62"/><ellipse class="cls-70" cx="195.94" cy="80.39" rx="194.97" ry="14.47"/><ellipse class="cls-71" cx="195.12" cy="80.38" rx="194.14" ry="14.31"/><ellipse class="cls-72" cx="194.31" cy="80.36" rx="193.31" ry="14.15"/><ellipse class="cls-73" cx="193.49" cy="80.34" rx="192.48" ry="13.99"/><ellipse class="cls-74" cx="192.67" cy="80.33" rx="191.64" ry="13.84"/><ellipse class="cls-75" cx="191.85" cy="80.31" rx="190.81" ry="13.68"/><ellipse class="cls-76" cx="191.03" cy="80.29" rx="189.98" ry="13.52"/><ellipse class="cls-77" cx="190.22" cy="80.28" rx="189.15" ry="13.36"/><ellipse class="cls-78" cx="189.4" cy="80.26" rx="188.31" ry="13.2"/><ellipse class="cls-79" cx="188.58" cy="80.24" rx="187.48" ry="13.05"/></g><g class="cls-80"><ellipse class="cls-3" cx="223.78" cy="80.2" rx="223.78" ry="18.37"/><ellipse class="cls-81" cx="223.49" cy="80.2" rx="223.46" ry="18.29"/><ellipse class="cls-82" cx="223.2" cy="80.2" rx="223.15" ry="18.21"/><ellipse class="cls-83" cx="222.91" cy="80.2" rx="222.84" ry="18.12"/><ellipse class="cls-84" cx="222.62" cy="80.2" rx="222.53" ry="18.04"/><ellipse class="cls-85" cx="222.33" cy="80.2" rx="222.21" ry="17.96"/><ellipse class="cls-86" cx="222.04" cy="80.2" rx="221.9" ry="17.87"/><ellipse class="cls-87" cx="221.75" cy="80.2" rx="221.59" ry="17.79"/><ellipse class="cls-88" cx="221.46" cy="80.2" rx="221.27" ry="17.71"/><ellipse class="cls-89" cx="221.17" cy="80.2" rx="220.96" ry="17.62"/><ellipse class="cls-90" cx="220.88" cy="80.2" rx="220.65" ry="17.54"/><ellipse class="cls-91" cx="220.59" cy="80.2" rx="220.33" ry="17.46"/><ellipse class="cls-92" cx="220.3" cy="80.2" rx="220.02" ry="17.38"/><ellipse class="cls-93" cx="220.01" cy="80.2" rx="219.71" ry="17.29"/><ellipse class="cls-94" cx="219.73" cy="80.2" rx="219.4" ry="17.21"/><ellipse class="cls-95" cx="219.44" cy="80.2" rx="219.08" ry="17.13"/><ellipse class="cls-96" cx="219.15" cy="80.2" rx="218.77" ry="17.04"/><ellipse class="cls-97" cx="218.86" cy="80.2" rx="218.46" ry="16.96"/><ellipse class="cls-98" cx="218.57" cy="80.2" rx="218.14" ry="16.88"/><ellipse class="cls-99" cx="218.28" cy="80.2" rx="217.83" ry="16.8"/><ellipse class="cls-100" cx="217.99" cy="80.2" rx="217.52" ry="16.71"/><ellipse class="cls-101" cx="217.7" cy="80.2" rx="217.2" ry="16.63"/><ellipse class="cls-102" cx="217.41" cy="80.2" rx="216.89" ry="16.55"/><ellipse class="cls-103" cx="217.12" cy="80.2" rx="216.58" ry="16.46"/><ellipse class="cls-104" cx="216.83" cy="80.2" rx="216.27" ry="16.38"/><ellipse class="cls-105" cx="216.54" cy="80.2" rx="215.95" ry="16.3"/><ellipse class="cls-106" cx="216.25" cy="80.2" rx="215.64" ry="16.22"/><ellipse class="cls-107" cx="215.96" cy="80.2" rx="215.33" ry="16.13"/><ellipse class="cls-108" cx="215.67" cy="80.2" rx="215.01" ry="16.05"/><ellipse class="cls-109" cx="215.38" cy="80.2" rx="214.7" ry="15.97"/><ellipse class="cls-110" cx="215.09" cy="80.2" rx="214.39" ry="15.88"/><ellipse class="cls-111" cx="214.81" cy="80.2" rx="214.07" ry="15.8"/><ellipse class="cls-112" cx="214.52" cy="80.2" rx="213.76" ry="15.72"/><ellipse class="cls-113" cx="214.23" cy="80.2" rx="213.45" ry="15.64"/><ellipse class="cls-114" cx="213.94" cy="80.2" rx="213.14" ry="15.55"/><ellipse class="cls-115" cx="213.65" cy="80.2" rx="212.82" ry="15.47"/><ellipse class="cls-116" cx="213.36" cy="80.2" rx="212.51" ry="15.39"/><ellipse class="cls-117" cx="213.07" cy="80.2" rx="212.2" ry="15.3"/><ellipse class="cls-118" cx="212.78" cy="80.2" rx="211.88" ry="15.22"/><ellipse class="cls-119" cx="212.49" cy="80.2" rx="211.57" ry="15.14"/><ellipse class="cls-120" cx="212.2" cy="80.2" rx="211.26" ry="15.06"/><ellipse class="cls-121" cx="211.91" cy="80.2" rx="210.95" ry="14.97"/><ellipse class="cls-122" cx="211.62" cy="80.2" rx="210.63" ry="14.89"/><ellipse class="cls-123" cx="211.33" cy="80.2" rx="210.32" ry="14.81"/><ellipse class="cls-124" cx="211.04" cy="80.2" rx="210.01" ry="14.72"/><ellipse class="cls-125" cx="210.75" cy="80.2" rx="209.69" ry="14.64"/><ellipse class="cls-126" cx="210.46" cy="80.2" rx="209.38" ry="14.56"/><ellipse class="cls-127" cx="210.17" cy="80.2" rx="209.07" ry="14.48"/><ellipse class="cls-128" cx="209.88" cy="80.2" rx="208.75" ry="14.39"/><ellipse class="cls-129" cx="209.6" cy="80.2" rx="208.44" ry="14.31"/><ellipse class="cls-130" cx="209.31" cy="80.2" rx="208.13" ry="14.23"/><ellipse class="cls-131" cx="209.02" cy="80.2" rx="207.82" ry="14.14"/><ellipse class="cls-132" cx="208.73" cy="80.2" rx="207.5" ry="14.06"/><ellipse class="cls-133" cx="208.44" cy="80.2" rx="207.19" ry="13.98"/><ellipse class="cls-134" cx="208.15" cy="80.2" rx="206.88" ry="13.9"/><ellipse class="cls-135" cx="207.86" cy="80.2" rx="206.56" ry="13.81"/><ellipse class="cls-136" cx="207.57" cy="80.2" rx="206.25" ry="13.73"/><ellipse class="cls-137" cx="207.28" cy="80.2" rx="205.94" ry="13.65"/><ellipse class="cls-138" cx="206.99" cy="80.2" rx="205.62" ry="13.56"/><ellipse class="cls-139" cx="206.7" cy="80.2" rx="205.31" ry="13.48"/><ellipse class="cls-140" cx="206.41" cy="80.2" rx="205" ry="13.4"/><ellipse class="cls-141" cx="206.12" cy="80.2" rx="204.69" ry="13.32"/><ellipse class="cls-142" cx="205.83" cy="80.2" rx="204.37" ry="13.23"/><ellipse class="cls-143" cx="205.54" cy="80.2" rx="204.06" ry="13.15"/><ellipse class="cls-144" cx="205.25" cy="80.2" rx="203.75" ry="13.07"/><ellipse class="cls-145" cx="204.96" cy="80.2" rx="203.43" ry="12.98"/><ellipse class="cls-146" cx="204.67" cy="80.2" rx="203.12" ry="12.9"/><ellipse class="cls-147" cx="204.39" cy="80.2" rx="202.81" ry="12.82"/><ellipse class="cls-148" cx="204.1" cy="80.2" rx="202.49" ry="12.73"/><ellipse class="cls-149" cx="203.81" cy="80.2" rx="202.18" ry="12.65"/><ellipse class="cls-150" cx="203.52" cy="80.2" rx="201.87" ry="12.57"/><ellipse class="cls-151" cx="203.23" cy="80.2" rx="201.56" ry="12.49"/><ellipse class="cls-152" cx="202.94" cy="80.2" rx="201.24" ry="12.4"/><ellipse class="cls-153" cx="202.65" cy="80.2" rx="200.93" ry="12.32"/><ellipse class="cls-154" cx="202.36" cy="80.2" rx="200.62" ry="12.24"/><ellipse class="cls-155" cx="202.07" cy="80.2" rx="200.3" ry="12.15"/><ellipse class="cls-156" cx="201.78" cy="80.2" rx="199.99" ry="12.07"/></g><ellipse class="cls-157" cx="188.93" cy="79.88" rx="187.14" ry="14.41"/><ellipse class="cls-158" cx="188.81" cy="79.88" rx="186.99" ry="12.39"/><rect class="cls-159" x="1.81" y="17.62" width="373.99" height="62.26"/><g class="cls-160"><path class="cls-161" d="M375.8,17.62a1.15,1.15,0,0,1-.33.76,3.6,3.6,0,0,1-.6.51,9.13,9.13,0,0,1-1.34.72,26.27,26.27,0,0,1-2.82,1c-1.91.56-3.84,1-5.77,1.38-3.87.77-7.77,1.35-11.66,1.88-7.8,1.05-15.61,1.84-23.43,2.53-15.65,1.34-31.31,2.26-47,3s-31.35,1.16-47,1.51-31.35.44-47,.46-31.36-.15-47-.46-31.35-.78-47-1.5-31.34-1.63-47-3c-7.82-.7-15.64-1.49-23.43-2.54-3.9-.53-7.79-1.11-11.66-1.88-1.94-.39-3.87-.82-5.77-1.38a26.27,26.27,0,0,1-2.82-1,8.36,8.36,0,0,1-1.35-.72,3.18,3.18,0,0,1-.59-.51,1.22,1.22,0,0,1-.34-.76,1.2,1.2,0,0,0,.35.74,3.48,3.48,0,0,0,.6.49,8.92,8.92,0,0,0,1.35.67A23.93,23.93,0,0,0,7,20.41c1.91.5,3.84.86,5.78,1.19,3.87.66,7.77,1.14,11.67,1.57C32.2,24,40,24.61,47.84,25.11s15.65.93,23.47,1.28,15.66.66,23.49.9c15.67.48,31.33.87,47,1.07s31.34.34,47,.32,31.34-.09,47-.32,31.34-.58,47-1.06q11.74-.37,23.49-.91t23.48-1.28c7.82-.5,15.64-1.09,23.44-1.93,3.9-.43,7.79-.92,11.67-1.58,1.93-.33,3.87-.69,5.78-1.19a24.37,24.37,0,0,0,2.83-.89,8.92,8.92,0,0,0,1.35-.67,3.54,3.54,0,0,0,.61-.49A1.19,1.19,0,0,0,375.8,17.62Z"/></g><ellipse class="cls-162" cx="188.81" cy="17.62" rx="186.99" ry="12.39"/><ellipse class="cls-163" cx="188.81" cy="25.29" rx="186.99" ry="12.39"/><ellipse class="cls-164" cx="188.81" cy="24.48" rx="186.99" ry="12.39"/><rect class="cls-165" x="1.81" y="12.39" width="373.99" height="12.09"/><g class="cls-160"><path class="cls-166" d="M375.8,12.39a1.13,1.13,0,0,1-.33.75,3.24,3.24,0,0,1-.6.52,8.21,8.21,0,0,1-1.34.71,22.54,22.54,0,0,1-2.82,1c-1.91.56-3.84,1-5.77,1.39-3.87.77-7.77,1.35-11.66,1.88-7.8,1-15.61,1.83-23.43,2.53-15.65,1.33-31.31,2.26-47,3s-31.35,1.16-47,1.5-31.35.44-47,.47-31.36-.16-47-.46-31.35-.78-47-1.51-31.34-1.62-47-3c-7.82-.7-15.64-1.49-23.43-2.53-3.9-.53-7.79-1.11-11.66-1.88-1.94-.4-3.87-.83-5.77-1.39a24.2,24.2,0,0,1-2.82-1,9.23,9.23,0,0,1-1.35-.72,2.9,2.9,0,0,1-.59-.52,1.19,1.19,0,0,1-.34-.75,1.25,1.25,0,0,0,.35.74,3.42,3.42,0,0,0,.6.48,8.08,8.08,0,0,0,1.35.67,24,24,0,0,0,2.84.9c1.91.49,3.84.86,5.78,1.18,3.87.66,7.77,1.15,11.67,1.58,7.8.84,15.62,1.43,23.44,1.93s15.65.94,23.47,1.28,15.66.66,23.49.91c15.67.48,31.33.87,47,1.06s31.34.35,47,.33,31.34-.1,47-.32,31.34-.58,47-1.07c7.83-.24,15.66-.56,23.49-.9s15.66-.77,23.48-1.28,15.64-1.09,23.44-1.94c3.9-.43,7.79-.92,11.67-1.58,1.93-.32,3.87-.69,5.78-1.18a24.43,24.43,0,0,0,2.83-.9,8.08,8.08,0,0,0,1.35-.67,3.48,3.48,0,0,0,.61-.48A1.24,1.24,0,0,0,375.8,12.39Z"/></g><ellipse class="cls-167" cx="188.81" cy="12.39" rx="186.99" ry="12.39"/></g></g></g></svg>