<svg xmlns="http://www.w3.org/2000/svg" viewBox="0 0 31 31"><defs><style>.cls-1{fill:#ff4c4b;}.cls-2{fill:#fff;}</style></defs><g id="Layer_2" data-name="Layer 2"><g id="Layer_1-2" data-name="Layer 1"><circle class="cls-1" cx="15.5" cy="15.5" r="15.5"/><path class="cls-2" d="M16.45,20.61h1.8a1,1,0,0,1,1,.74,1,1,0,0,1-.36,1.15,1.61,1.61,0,0,1-.72.23c-.55,0-1.1,0-1.7,0,0,.44,0,.85,0,1.27a1.05,1.05,0,0,1-2,.5,1.47,1.47,0,0,1-.17-.62c0-.37,0-.75,0-1.15-.59,0-1.15,0-1.71,0a1.05,1.05,0,0,1-1-1.41,1,1,0,0,1,1-.71h1.68V18.68l-.22-.07A6.38,6.38,0,0,1,16.45,6.08,6.17,6.17,0,0,1,21.71,11a6.34,6.34,0,0,1-5,7.66c-.23.05-.29.13-.28.35C16.46,19.52,16.45,20,16.45,20.61Zm3.29-8.22a4.25,4.25,0,1,0-4.27,4.24A4.26,4.26,0,0,0,19.74,12.39Z"/></g></g></svg>