<svg version="1.2" xmlns="http://www.w3.org/2000/svg" viewBox="0 0 1180 1180" width="1180" height="1180">
	<title>genderless-svg</title>
	<style>
		.s0 { fill: #000000 } 
	</style>
	<path id="Layer" fill-rule="evenodd" class="s0" d="m1166 590q0 117-45.5 223.5-45.5 106.5-123 184-77.5 77.5-184 123-106.5 45.5-223.5 45.5-117 0-223.5-45.5-106.5-45.5-184-123-77.5-77.5-123-184-45.5-106.5-45.5-223.5 0-117 45.5-223.5 45.5-106.5 123-184 77.5-77.5 184-123 106.5-45.5 223.5-45.5 117 0 223.5 45.5 106.5 45.5 184 123 77.5 77.5 123 184 45.5 106.5 45.5 223.5zm-128 0q0-185-131.5-316.5-131.5-131.5-316.5-131.5-185 0-316.5 131.5-131.5 131.5-131.5 316.5 0 185 131.5 316.5 131.5 131.5 316.5 131.5 185 0 316.5-131.5 131.5-131.5 131.5-316.5z"/>
</svg>