<svg xmlns="http://www.w3.org/2000/svg" viewBox="0 0 31 30.95"><defs><style>.cls-1{fill:#fff;}</style></defs><g id="Layer_2" data-name="Layer 2"><g id="Layer_1-2" data-name="Layer 1"><path class="cls-1" d="M15.5,0H11.59c-.34.09-.68.19-1,.3a.5.5,0,0,0,.16,1,.41.41,0,0,0,.16,0A14.62,14.62,0,0,1,15.5,1,.5.5,0,0,0,16,.5a.5.5,0,0,0-.5-.5Zm-9,3a.57.57,0,0,0-.3.1c-.41.31-.81.65-1.19,1H5l0,0h0l0,0h0l0,0h0l0,0H4.5l0,0H4.41l0,0h0l0,0h0l0,0h0l0,0h0A14.6,14.6,0,0,0,2.73,6.71a.5.5,0,0,0,.13.69.51.51,0,0,0,.28.09.5.5,0,0,0,.42-.22A14.88,14.88,0,0,1,6.78,3.91a.5.5,0,0,0,.1-.7.51.51,0,0,0-.4-.2Zm-5.4,7.83a.52.52,0,0,0-.48.37,15.62,15.62,0,0,0-.47,2.3h0v.08h0v0h0v0h0v0h0v0h0v0h0v0h0v0h0v0h0v0h0v0h0v0h0v0h0v0h0v0h0v0H0v0H0v0H0v0H0a2.71,2.71,0,0,1,0,.29.5.5,0,0,0,.5.48h0A.5.5,0,0,0,1,16.11c0-.2,0-.41,0-.61a14.67,14.67,0,0,1,.56-4,.5.5,0,0,0-.34-.62l-.14,0Zm.4,9.51a.57.57,0,0,0-.18,0A.51.51,0,0,0,1,21c.16.42.34.82.53,1.22h0l0,0h0l0,.05h0v0h0v0h0v0h.15v0h0v0h0v0h0l0,0h0l0,.05H2a15.57,15.57,0,0,0,1.57,2.3.5.5,0,0,0,.7.07.5.5,0,0,0,.07-.7,14.54,14.54,0,0,1-2.34-4,.51.51,0,0,0-.47-.32Zm6,7.35a.5.5,0,0,0-.27.92,15.41,15.41,0,0,0,4.21,1.85h.37l.12,0a.5.5,0,0,0,.12-1,14.61,14.61,0,0,1-4.29-1.81.5.5,0,0,0-.26-.08Zm13.91,1.08a.71.71,0,0,0-.2,0A14.31,14.31,0,0,1,16.72,30a.5.5,0,0,0,0,1h0a15.42,15.42,0,0,0,4-.89h0l0,0h.49l.27-.11a.5.5,0,0,0,.26-.66.52.52,0,0,0-.46-.3Zm7.1-6.33a.5.5,0,0,0-.44.25,14.79,14.79,0,0,1-2.93,3.62.48.48,0,0,0,0,.7.5.5,0,0,0,.37.17.46.46,0,0,0,.33-.13,15.3,15.3,0,0,0,2-2.17h0l0,0h0l0,0h0l0,0h0v0h.24v0h0l0,0h0l0,0h0l0,0h0l0,0h0l0-.05h0c.2-.29.38-.59.56-.9a.5.5,0,0,0-.19-.68.5.5,0,0,0-.24-.06Zm1.85-9.33h-.06a.5.5,0,0,0-.43.56A15.74,15.74,0,0,1,30,15.5a14.25,14.25,0,0,1-.28,2.84.5.5,0,0,0,.4.58h.09a.49.49,0,0,0,.49-.4,14,14,0,0,0,.26-2h0v0h0v-.12h0v0h0v0h0v0h0v0h0v0h0v0h0v0h0v0h0v0h0v0h0c0-.5-.05-1-.11-1.5h0v0h0v0a.5.5,0,0,0-.5-.43ZM26.26,4.55a.52.52,0,0,0-.35.14.5.5,0,0,0,0,.71,14.63,14.63,0,0,1,2.67,3.81A.51.51,0,0,0,29,9.5a.59.59,0,0,0,.22-.05.5.5,0,0,0,.23-.67v0h0v0h0l0,0h0l0,0h0l0-.06h0A15.71,15.71,0,0,0,26.62,4.7a.51.51,0,0,0-.36-.15ZM17.81.18a.49.49,0,0,0-.49.42.51.51,0,0,0,.42.57,14.44,14.44,0,0,1,4.42,1.45.5.5,0,0,0,.23,0,.49.49,0,0,0,.45-.27.5.5,0,0,0-.22-.67,15.26,15.26,0,0,0-2.28-1h0l-.05,0H19c-.38-.09-.76-.17-1.15-.23Z"/></g></g></svg>