<svg xmlns="http://www.w3.org/2000/svg" viewBox="0 0 31 31"><defs><style>.cls-1{fill:#328bc7;}.cls-2{fill:#fff;}</style></defs><g id="Layer_2" data-name="Layer 2"><g id="Layer_1-2" data-name="Layer 1"><circle class="cls-1" cx="15.5" cy="15.5" r="15.5"/><path class="cls-2" d="M23.37,13a1.17,1.17,0,0,1-1.07.81,1,1,0,0,1-1.06-1c0-.24,0-.48,0-.72v-.77l-1,1-.9.89A18.66,18.66,0,0,1,20.12,15a6.38,6.38,0,1,1-7.37-4.41,6.2,6.2,0,0,1,4.79.94c.2.13.31.14.48,0,.5-.53,1-1,1.6-1.61H18.43a1.09,1.09,0,0,1-1.09-.78,1.05,1.05,0,0,1,1-1.35c1,0,2,0,3,0h.78a1.1,1.1,0,0,1,1.15.72s0,.06.06.09Zm-9.32-.38A4.26,4.26,0,0,0,9.77,16.8a4.25,4.25,0,0,0,8.49.27A4.24,4.24,0,0,0,14.05,12.63Z"/></g></g></svg>