<svg xmlns="http://www.w3.org/2000/svg" viewBox="0 0 58.42 58.4"><defs><style>.cls-1{fill:#3e494f;}.cls-2{fill:#444f54;}.cls-3{fill:#3f4a50;}.cls-4{fill:#7c8487;}.cls-5{fill:#9ba2a5;}.cls-6{fill:#9ba1a4;}.cls-7{fill:#e5e5e5;}.cls-8{fill:#e85552;}.cls-9{fill:#e75350;}.cls-10{fill:#e85753;}.cls-11{fill:#e95d5a;}.cls-12{fill:#fefefe;}.cls-13{fill:#e85b58;}.cls-14{fill:#e85a56;}.cls-15{fill:#e85855;}.cls-16{fill:#ce3835;}.cls-17{fill:#364147;}.cls-18{fill:#e74d4a;}.cls-19{fill:#e7504c;}.cls-20{fill:#ce3c39;}.cls-21{fill:#cf3e3b;}.cls-22{fill:#e7524e;}.cls-23{fill:#ce3a36;}.cls-24{fill:#e64b47;}.cls-25{fill:#e64844;}.cls-26{fill:#e64945;}.cls-27{fill:#374248;}.cls-28{fill:#4c565b;}.cls-29{fill:#4a545a;}.cls-30{fill:#3d484e;}.cls-31{fill:#475157;}.cls-32{fill:#3b474c;}.cls-33{fill:#3f4b50;}.cls-34{fill:#384449;}.cls-35{fill:#414c52;}.cls-36{fill:#444f55;}.cls-37{fill:#434e53;}.cls-38{fill:#3a454b;}.cls-39{fill:#475156;}.cls-40{fill:#485358;}.cls-41{fill:#e5423e;}.cls-42{fill:#e54440;}.cls-43{fill:#e64542;}.cls-44{fill:#5c6e77;}.cls-45{fill:#5b6d76;}.cls-46{fill:#52666f;}.cls-47{fill:#586b74;}.cls-48{fill:#5a6d76;}.cls-49{fill:#546871;}.cls-50{fill:#566972;}.cls-51{fill:#404b51;}.cls-52{fill:#465156;}.cls-53{fill:#f5f5f5;}.cls-54{fill:#f2f2f2;}</style></defs><g id="Layer_2" data-name="Layer 2"><g id="Layer_1-2" data-name="Layer 1"><path class="cls-1" d="M58.29,26.69c0,.08,0,.21.13.23v.34c-.08.07-.05.17-.06.25s0,.23.06.32v.46a.89.89,0,0,0,0,.68v.57a.92.92,0,0,0,0,.69v.68a.15.15,0,0,0,0,.23v.46a7.35,7.35,0,0,0-.32,1.92A29.06,29.06,0,0,1,47.26,52.14a12.79,12.79,0,0,0-1.13.8c-.43-.11-.21-.4-.12-.59.36-.73.66-1.48,1-2.2a6.75,6.75,0,0,0,.66-1.68,1.57,1.57,0,0,1,.44-.58,26.29,26.29,0,0,0,7.4-14.75c.1-.62.14-1.25.27-1.86.43-.86.9-1.69,1.29-2.57.22-.52.46-1,.7-1.54C57.9,27,58,26.68,58.29,26.69Z"/><path class="cls-1" d="M31.61,0c.27.24.64,0,.92.22a.35.35,0,0,1,0,.33,16.19,16.19,0,0,1-.95,2,1,1,0,0,1-.47.1,5.58,5.58,0,0,1-1.08,0,3.83,3.83,0,0,0-1.65,0,7.26,7.26,0,0,1-1.68,0,.27.27,0,0,1-.22-.42A12.87,12.87,0,0,1,27.62,0h.46a1.22,1.22,0,0,0,.8,0h.68a.89.89,0,0,0,.68,0h.58c.06.07.14.06.22.06s.17,0,.23-.06Z"/><path class="cls-1" d="M27.62,0a18.2,18.2,0,0,1-.89,2c-.07.15-.28.28-.12.5,0,.12-.08.17-.17.21C25.71,2.79,25,3,24.25,3c-.43,0-.6-.26-.41-.65.32-.66.55-1.37.93-2C25.4.14,26.1.3,26.71,0h.46a.25.25,0,0,0,.34,0Z"/><path class="cls-1" d="M28.88,0a.66.66,0,0,1-.8,0Z"/><path class="cls-2" d="M58.42,30.23a.52.52,0,0,1,0-.69Z"/><path class="cls-3" d="M58.42,29a.51.51,0,0,1,0-.68Z"/><path class="cls-1" d="M30.24,0a.52.52,0,0,1-.68,0Z"/><path class="cls-1" d="M27.51,0c-.12.14-.23.17-.34,0Z"/><path class="cls-4" d="M58.42,27.83c-.14-.08-.11-.22-.1-.34s.07,0,.1,0Z"/><path class="cls-5" d="M58.42,31.14c-.15-.07-.13-.15,0-.23Z"/><path class="cls-1" d="M31.27,0c0,.12-.13.11-.22.1S31,.06,31,0s0,0,0,0Z"/><path class="cls-1" d="M31,0s0,.06,0,.1-.19,0-.23-.1Z"/><path class="cls-6" d="M58.42,27.49h-.1c0-.1,0-.19.1-.23Z"/><path class="cls-1" d="M.12,31.17a19.25,19.25,0,0,1,0-3.87,4.44,4.44,0,0,1,.16-1.4c1.11-2.14,2.06-4.36,3.09-6.53s1.9-4.06,2.83-6.09c.64-1.4,1.3-2.79,1.94-4.18a14.52,14.52,0,0,1,2.17-2c.25.27.08.53,0,.78-.65,1.32-1.24,2.67-1.87,4A1.77,1.77,0,0,0,8,13a15.53,15.53,0,0,1-1.31,2,22,22,0,0,0-2.47,5,34.23,34.23,0,0,0-1.55,6.62,5.4,5.4,0,0,0-1.14,2c-.34.71-.72,1.42-1,2.16A.68.68,0,0,1,.12,31.17Z"/><path class="cls-1" d="M8.1,9.1A1.08,1.08,0,0,1,8,9.8L3.66,19c-1,2.11-2,4.23-2.94,6.34a1,1,0,0,1-.48.61A25.49,25.49,0,0,1,2,18.75a29,29,0,0,1,5.59-9.1C7.72,9.46,7.92,9.28,8.1,9.1Z"/><path class="cls-1" d="M1.83,39.26A21.31,21.31,0,0,1,.47,34.12a.57.57,0,0,1,.07-.59c.49-.92.86-1.9,1.35-2.82L2,30.46c.09-.12.17-.28.36-.22s.15.2.16.33a3.06,3.06,0,0,0,.09.74c.2,1.67.52,3.31.87,5a6.91,6.91,0,0,0-1,1.86A3.12,3.12,0,0,1,1.83,39.26Z"/><path class="cls-1" d="M47.81,48.48a3.26,3.26,0,0,1-.49,1.42c-.36.85-.79,1.67-1.18,2.51-.08.17-.28.35,0,.53a21.54,21.54,0,0,1-4,2.43c-.25-.26-.14-.54,0-.79a24,24,0,0,1,1.39-2.78c.7-.7,1.59-1.15,2.34-1.79.5-.44,1-.86,1.5-1.3C47.47,48.59,47.58,48.41,47.81,48.48Z"/><path class="cls-1" d="M43.59,51.8c-.42.88-.84,1.77-1.27,2.64a1.52,1.52,0,0,0-.2.93A20.41,20.41,0,0,1,37.91,57c-.31,0-.22-.25-.16-.39A11.21,11.21,0,0,1,39.06,54a46.62,46.62,0,0,0,4.21-2.19A.27.27,0,0,1,43.59,51.8Z"/><path class="cls-1" d="M39.14,54.09a16.38,16.38,0,0,0-1.25,2.56c0,.12-.18.27,0,.39a19.18,19.18,0,0,1-4.36,1,.47.47,0,0,1,0-.53c.34-.71.6-1.45,1-2.13a8.78,8.78,0,0,1,1.95-.59c.66-.22,1.35-.39,2-.66C38.7,54.06,38.92,53.9,39.14,54.09Z"/><path class="cls-1" d="M5,45.51A19.53,19.53,0,0,1,3,41.91c-.12-.29.08-.49.18-.73a14.17,14.17,0,0,1,.67-1.42c.14-.24.26-.52.63-.45A20.16,20.16,0,0,1,5.7,41.65c.24.38.43.8.66,1.19a.54.54,0,0,1,.07.41,14.34,14.34,0,0,0-.9,1.69C5.41,45.16,5.34,45.43,5,45.51Z"/><path class="cls-1" d="M12.56,5.26a17.29,17.29,0,0,1,3.3-2c.22.24.06.46,0,.68-.33.66-.58,1.35-.94,2a1.28,1.28,0,0,0-.2.76c0,.22-.22.31-.37.44a39.6,39.6,0,0,0-3.2,2.43c-.13.11-.24.26-.43.26s-.12-.3,0-.45C11.26,8,11.86,6.61,12.56,5.26Z"/><path class="cls-1" d="M2.51,31.26c-.22-.29,0-.63-.17-1a5.14,5.14,0,0,0-.65,1.19c-.42.88-.82,1.78-1.22,2.66a12.21,12.21,0,0,1-.35-2.95c.77-1.37,1.33-2.83,2-4.23.11-.22.13-.5.49-.37a1.85,1.85,0,0,1,1.61.28A6.06,6.06,0,0,0,3,29.13c-.43.13-.43.45-.38.82S2.82,30.84,2.51,31.26Z"/><path class="cls-1" d="M5,45.51A13.82,13.82,0,0,0,6,43.6c.09-.18.13-.36.36-.37s.24.08.31.18c.57.87,1.16,1.71,1.81,2.52a.61.61,0,0,1,.2.51,6,6,0,0,0-.82,1.48c-.11.25-.16.55-.46.67A20.31,20.31,0,0,1,5,45.51Z"/><path class="cls-1" d="M14.63,6.73c-.25-.2-.09-.41,0-.61.35-.75.71-1.5,1.07-2.25a1,1,0,0,0,.15-.59,16.7,16.7,0,0,1,3.32-1.47c.15.19,0,.36,0,.53a14.68,14.68,0,0,1-.67,1.45,1.78,1.78,0,0,0-.28,1c-.14.36-.54.33-.8.52L15.1,6.58C15,6.66,14.82,6.79,14.63,6.73Z"/><path class="cls-1" d="M32.44,58.19a16.61,16.61,0,0,1-3.45.19c-.85-.09-.87-.1-.5-.87a4.35,4.35,0,0,1,.92-1.6,16.37,16.37,0,0,1,3.35-.23c.3.16.21.41.11.63-.19.41-.34.84-.56,1.24A.46.46,0,0,0,32.44,58.19Z"/><path class="cls-1" d="M25.8,58.17a16,16,0,0,1-3.31-.58.26.26,0,0,1-.16-.37,9.4,9.4,0,0,1,1-2,15.87,15.87,0,0,1,3.35.57.34.34,0,0,1,.08.36A5.67,5.67,0,0,1,25.8,58.17Z"/><path class="cls-1" d="M12.56,5.26a12.16,12.16,0,0,1-1,2.45c-.23.61-.55,1.2-.83,1.8-.05.1-.11.2,0,.3s-.09.35-.21.47a27.62,27.62,0,0,0-2.12,2.34.56.56,0,0,1-.41.27c-.29-.13-.08-.33,0-.46.3-.71.62-1.42,1-2.12.4-.87.82-1.74,1.24-2.61a1,1,0,0,0,.13-.65A14.12,14.12,0,0,1,12.56,5.26Z"/><path class="cls-1" d="M15.63,55a18.34,18.34,0,0,1-2.85-1.73,3.89,3.89,0,0,1,1.11-2.15A11.28,11.28,0,0,1,16,52.34c.28.16.67.19.78.59a12.45,12.45,0,0,0-.63,1.33A1.33,1.33,0,0,1,15.63,55Z"/><path class="cls-1" d="M24.77.36a6.47,6.47,0,0,1-.8,2c-.14.29-.15.48.25.47-.09.31-.39.23-.59.33-.91.2-1.8.44-2.7.65a.34.34,0,0,1-.17,0,.53.53,0,0,1,0-.59c.29-.63.61-1.25.89-1.9A.78.78,0,0,1,22,.92,14.18,14.18,0,0,1,24.77.36Z"/><path class="cls-1" d="M4.44,39.35c-.5.12-.54.6-.72.94-.28.53-.51,1.08-.75,1.62a14.12,14.12,0,0,1-1.14-2.65c.37-.93.8-1.83,1.25-2.72.07-.15.15-.27.34-.15a.56.56,0,0,1,.28.4c.26.71.47,1.43.75,2.14C4.5,39.06,4.56,39.22,4.44,39.35Z"/><path class="cls-1" d="M22,.92a10.92,10.92,0,0,0-1.25,2.84s0,.09-.05.1a7,7,0,0,1-2.57.93c-.37-.06-.14-.26-.09-.41.3-.88.88-1.65,1.11-2.57A15,15,0,0,1,22,.92Z"/><path class="cls-1" d="M25.8,58.17a22.56,22.56,0,0,0,.91-2.28.76.76,0,0,1,.58-.17,5.64,5.64,0,0,1,2,.29c-.23.77-.76,1.42-.95,2.22.2.13.44,0,.61.15A16.2,16.2,0,0,1,25.8,58.17Z"/><path class="cls-1" d="M7.43,48.59l.84-1.78c.09-.19.17-.39.43-.39a.25.25,0,0,1,.26.07c.44.53,1,1,1.41,1.52a.29.29,0,0,1,.05.27,6,6,0,0,0-.77,1.43c-.13.23-.21.53-.52.62A14,14,0,0,1,7.43,48.59Z"/><path class="cls-1" d="M15.63,55a11.2,11.2,0,0,0,.86-1.82c0-.13.1-.25.25-.27a3.86,3.86,0,0,1,2.17,1,8.17,8.17,0,0,1-1,2.17A13.78,13.78,0,0,1,15.63,55Z"/><path class="cls-1" d="M17.93,56.1a8.88,8.88,0,0,1,.77-1.83c.06-.12.1-.24.15-.36a.5.5,0,0,1,.49,0c.59.29,1.29.31,1.81.77a5.14,5.14,0,0,1-1.06,2.22A11,11,0,0,1,17.93,56.1Z"/><path class="cls-1" d="M9.13,50.33a8.57,8.57,0,0,0,.73-1.41c.1-.26.14-.62.53-.67a.17.17,0,0,1,.21,0c.49.41,1,.85,1.44,1.29a.3.3,0,0,1,.09.31,14.38,14.38,0,0,0-.8,1.5c-.11.19-.16.43-.37.56A11.17,11.17,0,0,1,9.13,50.33Z"/><path class="cls-1" d="M20.09,56.91l1-2.16a.33.33,0,0,1,.36-.07c.59.23,1.29.17,1.8.65A7.74,7.74,0,0,1,22.55,57c-.09.19-.23.36-.06.57A12.61,12.61,0,0,1,20.09,56.91Z"/><path class="cls-1" d="M11,51.93c.18-.68.64-1.24.85-1.91,0-.14.19-.17.32-.18.64.06,1,.64,1.46.92.16.09.41.17.32.46-.38.32-.46.82-.7,1.22s-.29.57-.43.85A11.5,11.5,0,0,1,11,51.93Z"/><path class="cls-1" d="M32.44,58.19c-.48,0-.53-.15-.33-.57a6.85,6.85,0,0,0,.75-1.86,1.78,1.78,0,0,1,1.72-.3,9.06,9.06,0,0,1-.67,1.65,5.36,5.36,0,0,0-.36.94A3.2,3.2,0,0,1,32.44,58.19Z"/><path class="cls-1" d="M58.29,26.69a8.59,8.59,0,0,0-1.08,2.11,23,23,0,0,1-1.28,2.46c-.24-.21-.16-.49-.16-.75s.08-.44.09-.67c0-.55-.06-.64-.6-.56a1.81,1.81,0,0,1-.57,0c-.43-.08-.34-.35-.23-.63.29-.67.62-1.32.89-2a.79.79,0,0,1,.3-.3c.59-1,1-2.17,1.58-3.24.09-.19.15-.53.49-.23.18,1.05.36,2.09.53,3.15A4.17,4.17,0,0,1,58.29,26.69Z"/><path class="cls-1" d="M36.31.91a18.61,18.61,0,0,1,4.12,1.36,9.85,9.85,0,0,0-.84,1.61c-.09.19-.13.4-.34.51-.56.05-1-.29-1.51-.41-.69-.23-1.38-.41-2.08-.61-.2-.05-.42-.07-.55-.26A4.59,4.59,0,0,1,36,1,.21.21,0,0,1,36.31.91Z"/><path class="cls-1" d="M51.82,10.84a15.46,15.46,0,0,1,2.24,3.08c-.36.6-.6,1.27-.93,1.88-.11.2-.18.43-.4.54s-.39-.34-.52-.55a17.28,17.28,0,0,0-1.52-2.27.7.7,0,0,1-.23-.54c.31-.61.55-1.24.87-1.84C51.42,11,51.5,10.69,51.82,10.84Z"/><path class="cls-1" d="M36.31.91c-.29,0-.33.28-.42.47-.26.56-.49,1.13-.74,1.69a.31.31,0,0,1-.25.11,26.81,26.81,0,0,0-2.83-.42,1.13,1.13,0,0,1-.18,0,.56.56,0,0,1-.28-.22A16.1,16.1,0,0,1,32.53.22,16.24,16.24,0,0,1,36.31.91Z"/><path class="cls-1" d="M57.72,22.93c-.19-.11-.25,0-.33.16A31.2,31.2,0,0,1,56,26c-.11.19,0,.44-.19.58a1.81,1.81,0,0,1-.2-1c-.14-1.06-.45-2.08-.58-3.13.41-.87.9-1.7,1.26-2.6.07-.18.16-.4.44-.35A23.58,23.58,0,0,1,57.72,22.93Z"/><path class="cls-1" d="M56.71,19.51c-.31.2-.34.56-.5.85a9.71,9.71,0,0,1-1.09,2c-.41-.32-.36-.84-.58-1.25-.08-.66-.52-1.23-.53-1.92.3-.75.68-1.46,1-2.2.09-.2.19-.48.53-.34A12.9,12.9,0,0,1,56.71,19.51Z"/><path class="cls-1" d="M55.55,16.65c-.46.13-.48.59-.64.93a9.66,9.66,0,0,1-.84,1.59c-.45-.18-.41-.7-.67-1a8,8,0,0,0-.61-1.33c-.1-.16-.22-.32-.08-.52a21.17,21.17,0,0,0,1-2c.06-.17.15-.35.38-.36A16.8,16.8,0,0,1,55.55,16.65Z"/><path class="cls-1" d="M39.25,4.36c.23-.53.44-1.07.69-1.6.1-.2.2-.45.49-.49a11.61,11.61,0,0,1,2.17,1,6.45,6.45,0,0,1-1,2.12c-.37.1-.64-.21-1-.25C40.15,4.89,39.57,4.83,39.25,4.36Z"/><path class="cls-1" d="M48.28,7.15A12.21,12.21,0,0,1,50.23,9c-.44.69-.71,1.46-1.12,2.17-.25.11-.38-.09-.52-.22-.37-.35-.71-.72-1.08-1.07-.14-.17-.34-.31-.34-.57A14.68,14.68,0,0,1,48.28,7.15Z"/><path class="cls-1" d="M49.06,11.2a10,10,0,0,1,.88-2A.33.33,0,0,1,50.23,9a8.74,8.74,0,0,1,1.59,1.84c-.46.18-.5.66-.67,1a8.26,8.26,0,0,1-.6,1.14A4,4,0,0,1,49.06,11.2Z"/><path class="cls-1" d="M48.28,7.15a10.55,10.55,0,0,1-1.05,2.23c-.44,0-.67-.39-1-.64s-.75-.46-.9-.91a11.65,11.65,0,0,1,.74-1.7c.1-.21.24-.45.56-.31A10.41,10.41,0,0,1,48.28,7.15Z"/><path class="cls-1" d="M41.52,5.4A16.77,16.77,0,0,1,42.6,3.29a10.37,10.37,0,0,1,2,1.16,10.32,10.32,0,0,1-1,2.17.3.3,0,0,1-.16,0c-.61-.26-1.14-.68-1.74-1A.33.33,0,0,1,41.52,5.4Z"/><path class="cls-1" d="M43.59,6.62a9.6,9.6,0,0,1,1-2.17,11.66,11.66,0,0,1,2,1.37c-.37,0-.45.37-.57.63-.23.47-.45,1-.67,1.43A4,4,0,0,1,43.59,6.62Z"/><path class="cls-7" d="M54.68,29.21c.31,0,.63-.07.94-.14s.4,0,.38.33c0,.62,0,1.24-.07,1.86a27,27,0,0,1-6,14.81c-.68.85-1.44,1.61-2.17,2.41a35.62,35.62,0,0,1-4.22,3.32,35.26,35.26,0,0,1-4.45,2.29,39.88,39.88,0,0,1-4.56,1.37l-1.72.3L29.33,56l-2.62-.12-3.42-.56-2.16-.58-2.28-.84-2.11-1-2.83-1.71a16.93,16.93,0,0,0-1.78-1.38l-1.74-1.59L8.7,46.42,6.39,43.23l-.12-.33c.34-.1.53.16.73.33a25.69,25.69,0,0,0,13.37,6.19,26,26,0,0,0,20.3-5.32,26.29,26.29,0,0,0,9.24-13.64,1.09,1.09,0,0,1,.32-.65,6.22,6.22,0,0,1,1.48-.27A19.85,19.85,0,0,1,54.68,29.21Z"/><path class="cls-8" d="M26.48,2.62l.13-.1,1.79,0a1.08,1.08,0,0,1,.86.06.32.32,0,0,1,0,.17c-.11.37-.34.7-.44,1.08-1,2.15-2,4.27-3,6.41-1.52,3.29-3.11,6.55-4.56,9.87a18.12,18.12,0,0,0-2.49,3.17,11,11,0,0,0-1.43,4,1,1,0,0,1-.25.67,3.51,3.51,0,0,1-1.61.1L15.26,28c-.55-.15-.61-.27-.37-.8l.62-1.35c1.48-3.09,2.91-6.19,4.35-9.3,2-4.23,4-8.46,5.92-12.7A3.67,3.67,0,0,1,26.48,2.62Z"/><path class="cls-9" d="M21.23,20a13.17,13.17,0,0,1,1.16-2.7c1.17-2.59,2.41-5.15,3.62-7.72.88-1.89,1.74-3.79,2.61-5.68a1.24,1.24,0,0,1,.14-.18c.14-.34.33-.67.46-1h0c.16-.46.51-.27.82-.24l1.13,0c.21.11.46,0,.67.09l.12,0c.22.27.09.54,0,.8-1.39,3-2.75,5.92-4.14,8.88-.64,1.36-1.28,2.71-1.9,4.08a2.58,2.58,0,0,0-.26,1.15c-.35.42-.91.44-1.34.7a10.69,10.69,0,0,0-2.59,1.61C21.57,20,21.47,20.18,21.23,20Z"/><path class="cls-1" d="M30,2.5c-.29,0-.61-.07-.82.24-.18-.42-.55-.15-.82-.24A3.25,3.25,0,0,1,30,2.5Z"/><path class="cls-1" d="M31.84,2.62c-.23,0-.47.08-.67-.09l.44,0Z"/><path class="cls-10" d="M26.48,2.62c-.27.62-.53,1.25-.82,1.86-1.24,2.64-2.49,5.28-3.72,7.92-1.58,3.36-3.14,6.72-4.71,10.09-.71,1.54-1.42,3.09-2.15,4.63-.29.62-.3.61.34.8-.37.32-.79.18-1.2.16A7.39,7.39,0,0,0,12.89,28c-.72-.23-.74-.26-.42-.94C14,23.65,15.59,20.31,17.15,17c2.12-4.58,4.3-9.14,6.38-13.74a.45.45,0,0,1,.1-.14l.59-.21C25,2.86,25.71,2.57,26.48,2.62Z"/><path class="cls-11" d="M8,12.89c.85-1.08,1.82-2.06,2.74-3.08a20.43,20.43,0,0,1,3.54-2.74.61.61,0,0,1,.69,0c.2.21,0,.47-.08.69-1.16,2.41-2.26,4.84-3.4,7.26L7,24.59c-.29.64-.61,1.27-.89,1.91a1,1,0,0,1-.59.65,1.81,1.81,0,0,1-1.29-.24,8.87,8.87,0,0,0-1.61-.34,18.53,18.53,0,0,1,.88-4.84,23.26,23.26,0,0,1,2.71-6.32C6.8,14.55,7.4,13.73,8,12.89Z"/><path class="cls-12" d="M50.2,29.91a26.49,26.49,0,0,1-4.84,9.75,26.79,26.79,0,0,1-7.58,6.6,27,27,0,0,1-8,3.08,25.52,25.52,0,0,1-7.34.48,26,26,0,0,1-10.8-3.19,25.09,25.09,0,0,1-4.74-3.32,4.23,4.23,0,0,0-.6-.41,22.47,22.47,0,0,1-1.83-3.55l-1-3a32.06,32.06,0,0,1-.91-5.13c0-.56,0-1.13-.07-1.68s.1-.62.54-.5a1.41,1.41,0,0,1,.93,0c.83.15,1.67.27,2.5.4s1.46.21,2.19.24l.19,0a1.52,1.52,0,0,0,.67.07c1,.1,2,.16,3,.22,1.18.06,2.37.14,3.56.12h.4c.76,0,.87.1,1,.86.07.41.16.82.26,1.22a11,11,0,0,0,1.89,4A10.93,10.93,0,0,0,23,39.48a11.5,11.5,0,0,0,2.41,1.13,12.1,12.1,0,0,0,2.46.52,6.9,6.9,0,0,0,2.08,0,12.36,12.36,0,0,0,2.9-.53A7.25,7.25,0,0,0,34.5,40,13.43,13.43,0,0,0,36,39a11.31,11.31,0,0,0,4.54-6,10.67,10.67,0,0,0,.48-2.1c0-.33.14-.59.51-.65.92-.07,1.84,0,2.76,0a5.82,5.82,0,0,0,.73-.08c.61-.09,1.23.05,1.84-.09.91-.08,1.83-.09,2.73-.23C49.83,29.75,50.05,29.71,50.2,29.91Z"/><path class="cls-13" d="M5.59,27a10.88,10.88,0,0,0,1.3-2.51c.67-1.31,1.24-2.68,1.86-4l6-12.81c.08-.17.12-.35.22-.62-.3.17-.49,0-.71,0l.37-.34a20,20,0,0,1,2.73-1.48c.26.24.27.25.12.64-.35.9-.8,1.76-1.21,2.64q-2.22,4.79-4.45,9.56c-1.14,2.46-2.3,4.92-3.45,7.38-.2.43-.4.86-.59,1.3-.12.26-.22.53-.54.62a3.71,3.71,0,0,1-1.33-.1C5.77,27.27,5.61,27.24,5.59,27Z"/><path class="cls-1" d="M5.59,27a5.52,5.52,0,0,0,1.71.24.13.13,0,0,1,.06.13,10.72,10.72,0,0,1-1,2.23A28.34,28.34,0,0,1,3,29.08a5.12,5.12,0,0,1,.78-2c.1-.23.32-.15.5-.18Z"/><path class="cls-14" d="M7.33,27.37l0-.09a16.29,16.29,0,0,0,1.21-2.44c.67-1.34,1.25-2.72,1.88-4.07q2.58-5.52,5.17-11c.61-1.31,1.2-2.62,1.79-3.93.09-.19.21-.38,0-.57l.8-.46,2.62-1,.11,0c.07.23-.06.4-.15.59-1.7,3.58-3.35,7.19-5,10.78-1.89,4-3.75,8.05-5.64,12.06a.94.94,0,0,1-.26.44.36.36,0,0,1-.17.07A7.2,7.2,0,0,1,7.33,27.37Z"/><path class="cls-15" d="M9.83,27.59a9.32,9.32,0,0,1,.89-2.08c.86-1.94,1.8-3.84,2.69-5.77Q16,14.21,18.56,8.66c.76-1.63,1.55-3.25,2.33-4.87a11.65,11.65,0,0,1,2.74-.72,5.88,5.88,0,0,1-.86,2.14c-1.7,3.72-3.46,7.42-5.2,11.13l-3.84,8.24c-.4.88-.77,1.78-1.21,2.63-.22.41-.06.51.27.6,0,0-.06.11-.12.11A6.22,6.22,0,0,1,9.83,27.59Z"/><path class="cls-16" d="M54.67,21.1a9,9,0,0,1,.45,1.26c.21,1.08.43,2.17.63,3.26a7.63,7.63,0,0,1,0,1,.41.41,0,0,0-.34.09,2.51,2.51,0,0,1-1.18.34c-.54.12-1.09.19-1.63.28a2.62,2.62,0,0,1-.56,0c-.5-.11-.39-.44-.24-.75.57-1.21,1.12-2.44,1.71-3.65.22-.46.4-.94.64-1.4C54.29,21.3,54.36,21.05,54.67,21.1Z"/><path class="cls-17" d="M52.6,27.16l2.85-.49a13,13,0,0,1-.85,2.08c-.05.16-.34.38.08.46a17.71,17.71,0,0,1-3,.46.4.4,0,0,1-.07-.47A9.58,9.58,0,0,1,52.6,27.16Z"/><path class="cls-18" d="M39.25,4.36,40.63,5c.17.2,0,.39,0,.58l-3.1,6.66L35.31,17c-.23.48-.33,1.08-1,1.28a5,5,0,0,1-1.08-.35c-.64-.29-1.37-.31-2-.63-.13-.31.06-.56.17-.8Q33,13,34.64,9.6c.83-1.76,1.64-3.54,2.48-5.3.13-.26.23-.61.66-.42A12.62,12.62,0,0,1,39.25,4.36Z"/><path class="cls-19" d="M37.78,3.88c-.27,0-.37.13-.46.33l-3.69,7.94q-1.17,2.53-2.36,5c-.44.22-.9,0-1.35,0-.42-.16-.88,0-1.31-.15-.27-.25-.06-.49,0-.72.65-1.52,1.38-3,2.08-4.5,1.26-2.72,2.55-5.44,3.8-8.17a1.3,1.3,0,0,1,.4-.61h.23l2.05.58A5.83,5.83,0,0,1,37.78,3.88Z"/><path class="cls-20" d="M52.71,16.32a13.45,13.45,0,0,1,.81,1.82c-.69,1.31-1.22,2.7-1.92,4-.1.19-.14.64-.57.34-.23-1.39-.24-2.81-.52-4.2a1.91,1.91,0,0,0-.06-.33c-.17-1-.51-2-.72-3a4.92,4.92,0,0,1,.66-1.34.34.34,0,0,1,.41-.2A25.09,25.09,0,0,1,52.71,16.32Z"/><path class="cls-21" d="M50.8,13.45c-.52.37-.64,1-.94,1.49a.11.11,0,0,1-.15,0,34.83,34.83,0,0,0-1.56-3.67c-.1-.2-.2-.41-.32-.6s-.43-.51-.24-.87l1.47,1.4L50.55,13C50.52,13.22,50.71,13.3,50.8,13.45Z"/><path class="cls-22" d="M34.92,3.08a22.69,22.69,0,0,1-1.27,2.85c-1.21,2.65-2.49,5.27-3.71,7.92A34.12,34.12,0,0,0,28.54,17c-.07.28-.31.24-.5.25a7.86,7.86,0,0,0-.83.11c-.36.05-.71.14-1.06.22-.19.05-.4.15-.58,0-.32-.6.13-1.07.34-1.53.93-2.08,1.93-4.12,2.89-6.18s2-4.36,3.05-6.53A1.55,1.55,0,0,0,32,2.64,10.61,10.61,0,0,1,34.92,3.08Z"/><path class="cls-23" d="M51.12,22.59a6.87,6.87,0,0,0,1-1.88c.35-.72.67-1.44,1-2.17a.74.74,0,0,1,.38-.4c.19.34.37.68.55,1a18,18,0,0,1,.6,1.93c-.28.12-.33.41-.44.64q-1.15,2.45-2.29,4.91c-.08.18-.3.42.11.51a1.11,1.11,0,0,1-1.32.22.86.86,0,0,1-.08-.61,24.86,24.86,0,0,0,.3-3.66A.66.66,0,0,1,51.12,22.59Z"/><path class="cls-24" d="M34.34,18.14c.53-.24.62-.79.84-1.23.67-1.4,1.3-2.82,2-4.23l3.39-7.26a1.64,1.64,0,0,0,.1-.38c.33,0,.58.28.89.36.63.44,1.37.71,2,1.2.17.3,0,.56-.13.81-1.75,3.64-3.4,7.33-5.14,11a9.32,9.32,0,0,1-.84,1.67c-.28.13-.46-.07-.64-.22a8.67,8.67,0,0,0-1.38-1C35.06,18.59,34.51,18.62,34.34,18.14Z"/><path class="cls-25" d="M47.59,9.8a2.63,2.63,0,0,0,.34.81.78.78,0,0,1-.11.54c-1.28,2.6-2.47,5.25-3.71,7.87q-1.34,2.82-2.62,5.67a2.44,2.44,0,0,1-.63,1c-.42-.2-.4-.66-.6-1a6.65,6.65,0,0,0-.53-1.19c-.1-.22-.26-.43-.19-.69,1.33-2.71,2.56-5.46,3.85-8.19.84-1.81,1.69-3.61,2.52-5.42a1,1,0,0,1,.42-.53l.9.71Z"/><path class="cls-26" d="M46.33,8.67l-2.25,4.84q-1.94,4.17-3.89,8.34c-.17.34-.24.77-.63,1-.37-.07-.41-.44-.63-.65a21.34,21.34,0,0,0-1.62-1.92.18.18,0,0,1,0-.16c.53-1.17,1.05-2.34,1.59-3.51l4.38-9.35a4.36,4.36,0,0,0,.21-.64l.11,0,1.82,1.26Z"/><path class="cls-27" d="M50.77,27.36a5,5,0,0,0,1.28-.2h.55A10.16,10.16,0,0,1,51.85,29a1.67,1.67,0,0,0-.16.7l-1.49.24h-.53c-.6.06-.66,0-.46-.55a16.62,16.62,0,0,1,.94-2A.45.45,0,0,1,50.77,27.36Z"/><path class="cls-28" d="M17.58,32.4A3.7,3.7,0,0,1,17.26,31c0-.51-.2-.73-.71-.66a2.27,2.27,0,0,1-.45,0,.32.32,0,0,1,0-.37,12.13,12.13,0,0,1,1.07-2.13,14.15,14.15,0,0,1,.74-3A13.17,13.17,0,0,1,21.23,20a11.66,11.66,0,0,1,3-1.88c.17.29,0,.54-.14.78-.35.69-.64,1.4-1,2.09a1.54,1.54,0,0,0-.19.81c-.28.61-.85,1-1.24,1.48a9.22,9.22,0,0,0-2,5.65,2,2,0,0,1-.1,1c-.34-.15-.34-.15-.18-.69a2.18,2.18,0,0,0-.5.86c-.26.66-.64,1.28-.9,1.94C17.92,32.26,17.83,32.45,17.58,32.4Z"/><path class="cls-1" d="M17.15,27.84c-.16.67-.58,1.23-.8,1.87-.07.22-.16.42-.25.63a31.81,31.81,0,0,1-3.65-.13.44.44,0,0,1,0-.48c.24-.53.51-1.05.76-1.57s.64-.24,1-.22l1.24,0A4.59,4.59,0,0,0,17.15,27.84Z"/><path class="cls-29" d="M22.83,21.79c-.25-.24,0-.45.05-.66.41-1,1-1.93,1.32-3l1.37-.61c.54,0,1-.31,1.59-.31.08.64-.35,1.11-.56,1.65-.12.31-.36.59-.2,1a.24.24,0,0,1-.12.2,12,12,0,0,0-3.18,1.69A.27.27,0,0,1,22.83,21.79Z"/><path class="cls-1" d="M14.18,27.94a.82.82,0,0,0-1.06.69c-.15.55-.6,1-.67,1.58A28.81,28.81,0,0,1,9.37,30c-.2-.09-.41,0-.6-.08h0l0,0a5.05,5.05,0,0,1,1-2.27l.12,0,3,.22C13.25,27.9,13.73,27.75,14.18,27.94Z"/><path class="cls-1" d="M40.38,24.64l.47,1.05a2.75,2.75,0,0,1,.43,1.44c.08.49.26.73.77.67a.62.62,0,0,1,.49.11c.11.16,0,.2-.14.26a.45.45,0,0,1-.16,0c-.88-.18-1.23.35-1.54,1.06-.88,2-1.85,4-2.79,6-.61,1.29-1.13,2.62-1.84,3.85a11.1,11.1,0,0,1-1.46.91c-.28-.19-.31-.22-.12-.59.34-.69.63-1.41,1-2.1a3.4,3.4,0,0,0,.38-1.11c.37-.62.91-1.11,1.31-1.71a9.13,9.13,0,0,0,1.6-5.25V27.87a10.56,10.56,0,0,1,1.34-3.1A.24.24,0,0,1,40.38,24.64Z"/><path class="cls-30" d="M36.07,39.14a5,5,0,0,1,.67-1.67c1.17-2.57,2.39-5.12,3.59-7.67.07-.16.13-.32.19-.48.48-1.26.48-1.26,1.82-1.26a.29.29,0,0,1,.08.26,5.88,5.88,0,0,1-1,2c-.2.1-.19.3-.22.49a12.16,12.16,0,0,1-3.27,6.79A13.42,13.42,0,0,1,36.07,39.14Z"/><path class="cls-31" d="M23,39.57a10.34,10.34,0,0,1-3.44-3.17c-.08-.19,0-.36.11-.52.22-.44.44-.87.62-1.32a.71.71,0,0,1,.48-.5c.51.22.65.77,1,1.13s.39.46.61.67a8.45,8.45,0,0,0,1.4,1.2c.17.12.42.2.37.49A3.83,3.83,0,0,0,23.32,39,1.14,1.14,0,0,1,23,39.57Z"/><path class="cls-29" d="M20.77,34.11c-.39.19-.41.6-.57.93l-.69,1.36a10.12,10.12,0,0,1-1.93-4,14.29,14.29,0,0,0,1.14-2.24,2.66,2.66,0,0,1,.61-1c.19.27,0,.62.19.85a.34.34,0,0,1,.13.24,10.85,10.85,0,0,0,1,3.21C20.69,33.67,20.87,33.85,20.77,34.11Z"/><path class="cls-32" d="M41.42,30.36a15.76,15.76,0,0,0,.92-2.3l.22-.09a.38.38,0,0,1,.27-.16c.82,0,1.64-.17,2.46-.15a1.77,1.77,0,0,1,.61.08.41.41,0,0,1,.14.59,11.43,11.43,0,0,1-1,1.91A27.77,27.77,0,0,1,41.42,30.36Z"/><path class="cls-33" d="M33,40.73a8,8,0,0,1-3,.57c-.16-.17-.08-.35,0-.53a13.18,13.18,0,0,1,1-2,7.7,7.7,0,0,1,1.38-.53,5.7,5.7,0,0,0,1.07-.39c.17-.07.34-.19.54-.1.15.47-.14.83-.31,1.22A5.64,5.64,0,0,0,33,40.73Z"/><path class="cls-34" d="M50.2,27.48a15.45,15.45,0,0,1-.87,1.95c-.19.47,0,.47.34.47a14.55,14.55,0,0,1-2.72.23c-.29.09-.53.05-.41-.33a6.26,6.26,0,0,1,1.09-2.19A4.78,4.78,0,0,1,50.2,27.48Z"/><path class="cls-35" d="M31,38.79l-.9,2a.9.9,0,0,0-.12.48,6.65,6.65,0,0,1-2.18,0c-.41,0-.52-.23-.35-.6s.47-1,.71-1.47a.67.67,0,0,1,.66-.34,3.43,3.43,0,0,0,1.06-.08C30.3,38.78,30.67,38.53,31,38.79Z"/><path class="cls-36" d="M23,39.57a8,8,0,0,1,.76-1.75c.1-.15.18-.29.38-.29.44-.15.69.3,1.06.36.4.24.94.21,1.24.63a5.09,5.09,0,0,0-1.05,2.18A8.33,8.33,0,0,1,23,39.57Z"/><path class="cls-37" d="M25.34,40.7a.42.42,0,0,1,0-.47c.22-.46.43-.93.64-1.39.08-.19.2-.32.43-.28.21-.18.43-.08.65,0a9,9,0,0,0,1.46.22c.48,0,1-.15,1.42.16-.35.22-.74.07-1.1.11s-.4,0-.5.28a12.66,12.66,0,0,1-.67,1.39c-.18.31-.09.47.21.59A8.57,8.57,0,0,1,25.34,40.7Z"/><path class="cls-1" d="M9.71,27.62l-1,2.27a14.59,14.59,0,0,1-2.28-.25c-.1-.15,0-.28,0-.42.29-.61.59-1.23.88-1.85A21.1,21.1,0,0,1,9.71,27.62Z"/><path class="cls-1" d="M33,40.73c-.31,0-.17-.22-.11-.37.32-.89.87-1.69,1.13-2.61,0,0,0-.09,0-.11a8.07,8.07,0,0,1,2-1.37c0,.88-.62,1.51-.87,2.29a8.52,8.52,0,0,1-.49,1c-.08.16-.22.33,0,.48A5.37,5.37,0,0,1,33,40.73Z"/><path class="cls-38" d="M47.58,27.72c-.29.67-.59,1.33-.88,2-.09.23-.12.44.25.41a8.45,8.45,0,0,1-1.88.11,6.91,6.91,0,0,1,.71-1.65,1.33,1.33,0,0,0,.21-.75c.13-.17.34-.18.53-.24C46.88,27.57,47.25,27.46,47.58,27.72Z"/><path class="cls-1" d="M8.77,29.9c.2,0,.41-.08.6.08A1.11,1.11,0,0,1,8.77,29.9Z"/><path class="cls-39" d="M29.9,17.11a5.71,5.71,0,0,1,1.37.09,10.54,10.54,0,0,1,2.06.59,9.58,9.58,0,0,0-1,2c0,.09,0,.18-.15.22-.75-.1-1.48-.31-2.22-.42a3.39,3.39,0,0,0-.9-.07c-.36,0-.5-.23-.4-.58a16.91,16.91,0,0,1,.77-1.75C29.55,17,29.72,17,29.9,17.11Z"/><path class="cls-36" d="M32.3,20c0-.09-.1-.2-.07-.26.25-.59.53-1.18.81-1.76a.32.32,0,0,1,.29-.15l1,.35c.33.28.78.35,1.08.66a11.49,11.49,0,0,1-1,2.11c-.5.08-.8-.37-1.23-.46S32.48,20.3,32.3,20Z"/><path class="cls-40" d="M29.9,17.11c-.12,0-.28,0-.3.11a12.29,12.29,0,0,1-.73,1.66c-.17.43,0,.53.38.52s.54-.1.77.1a.33.33,0,0,1-.17.12,19.66,19.66,0,0,0-3.16.3.34.34,0,0,1-.32-.07c-.41-.12-.21-.38-.11-.57a17.56,17.56,0,0,0,.9-2c.44-.21.94,0,1.38-.23C29,17.07,29.46,16.9,29.9,17.11Z"/><path class="cls-41" d="M47.58,27.72H46.47c-.45,0-.55-.09-.43-.49a7.58,7.58,0,0,1,.49-1.09c1.22-2.61,2.37-5.25,3.68-7.81.09-.16.13-.36.34-.43A14,14,0,0,1,51,20.56c.1.67.09,1.35.13,2a30.54,30.54,0,0,1-.35,4.77c-.18.06-.4,0-.57.12A25.76,25.76,0,0,0,47.58,27.72Z"/><path class="cls-42" d="M50.55,17.91l-1.83,3.9-2.51,5.34c-.13.29-.24.57.26.58-.14.12-.33.06-.48.11l-3.19.09c0-.25.24-.23.39-.23a.64.64,0,0,0,.63-.46c1.16-2.51,2.33-5,3.5-7.52.66-1.41,1.28-2.83,2-4.21.11-.22.17-.48.44-.57h.11q.33,1.26.63,2.52A3.47,3.47,0,0,1,50.55,17.91Z"/><path class="cls-43" d="M49.75,14.94C47.84,19,45.88,23,44.05,27.13c-.31.71-.76.65-1.25.8l-.24,0c-.42-.07-1,.18-1.24-.12s-.18-.77-.26-1.18l-.21-1q1.07-2.32,2.14-4.64,2.46-5.22,4.94-10.44A16.18,16.18,0,0,1,49.75,14.94Z"/><path class="cls-37" d="M34.35,20.88l.74-1.71a.6.6,0,0,1,.33-.37,12.1,12.1,0,0,1,1.88,1.3.28.28,0,0,1,0,.09,7.61,7.61,0,0,1-1.09,2.19.29.29,0,0,1-.16,0c-.52-.39-1-.82-1.53-1.21C34.43,21.12,34.3,21,34.35,20.88Z"/><path class="cls-33" d="M40.38,24.64a9.81,9.81,0,0,0-1.47,3.2c-.28,0-.23-.26-.27-.42a8.18,8.18,0,0,0-.52-1.68,3.11,3.11,0,0,1-.46-1.33,13.45,13.45,0,0,1,.91-2c.09-.16.16-.41.45-.27l.54.7A16.41,16.41,0,0,1,40.38,24.64Z"/><path class="cls-35" d="M39,22.13c-.53.32-.57.94-.86,1.41a7.81,7.81,0,0,0-.39.88s-.05,0-.05,0a7.26,7.26,0,0,1-1.54-2.07c.28-.61.64-1.18.86-1.82a.48.48,0,0,1,.27-.35A7.9,7.9,0,0,1,39,22.13Z"/><path class="cls-44" d="M20.55,33.54a7.61,7.61,0,0,1-1-3.54,10.11,10.11,0,0,1,1.06-5.32,13.44,13.44,0,0,1,2.25-2.89A9.52,9.52,0,0,1,26.25,20a.6.6,0,0,1,.23.79c-.21.58-.52,1.12-.78,1.69a.79.79,0,0,1-.38.32,1.13,1.13,0,0,0-.47.68A20.73,20.73,0,0,0,23.44,25a7,7,0,0,0-1.3,5.17,2.66,2.66,0,0,1,0,.63c-.28.88-.79,1.66-1.14,2.52C21,33.49,20.82,33.69,20.55,33.54Z"/><path class="cls-45" d="M24.77,23.38a.78.78,0,0,1,.58-.79.35.35,0,0,0,.23-.21c.22-.48.43-1,.67-1.43a.91.91,0,0,0,0-1l.12-.11a11.36,11.36,0,0,1,3.53-.34.23.23,0,0,1,.05.26A10.37,10.37,0,0,1,28.87,22a11.14,11.14,0,0,1-1.39.31,7.35,7.35,0,0,0-2.16.91C25.15,23.28,25,23.46,24.77,23.38Z"/><path class="cls-46" d="M38.23,25.66a10.4,10.4,0,0,1,.68,2.18,11.35,11.35,0,0,1-.78,5.28,11,11,0,0,1-1.73,2.64l-.45.51L34,37.75a9,9,0,0,1-1.6.58c-.18-.3,0-.55.14-.79.31-.63.54-1.29.88-1.9a1.32,1.32,0,0,0,.18-.65,1.33,1.33,0,0,1,.44-.5,7.16,7.16,0,0,0,2.26-4.38,2.18,2.18,0,0,0,.06-.67,1.28,1.28,0,0,1,.07-.34c.43-.84.83-1.69,1.22-2.55A1.76,1.76,0,0,1,38.23,25.66Z"/><path class="cls-47" d="M25.11,38c-.39,0-.65-.38-1-.46-.58-.57-1.37-.89-1.83-1.6a9.53,9.53,0,0,1,1.1-2.3c.24-.05.32.16.44.28a8.05,8.05,0,0,0,1.39,1.22,4,4,0,0,1,1,.7A5,5,0,0,1,25.11,38Z"/><path class="cls-48" d="M23.4,33.66a15.06,15.06,0,0,1-1.14,2.27,7.91,7.91,0,0,1-1.49-1.82l-.22-.57a.41.41,0,0,0,.37-.3L22,30.8c.25,0,.25.2.29.34a8.75,8.75,0,0,0,1,2.19A.54.54,0,0,1,23.4,33.66Z"/><path class="cls-49" d="M33.67,35c.23.21,0,.38-.06.55a25,25,0,0,0-1.2,2.76,7.12,7.12,0,0,1-1.37.46l-1.14.11H28.42c-.09-.35.16-.59.28-.87a10.22,10.22,0,0,1,.74-1.57c.21-.13.46-.08.68-.16a6.57,6.57,0,0,0,2.44-.77C33,35.4,33.19,35,33.67,35Z"/><path class="cls-50" d="M29.45,36.51a12.87,12.87,0,0,1-1,2.38,12.88,12.88,0,0,1-2.05-.33L25.11,38l1-2.17c.51-.12.89.31,1.37.32a11.28,11.28,0,0,0,1.42.2A.66.66,0,0,1,29.45,36.51Z"/><path class="cls-47" d="M28.88,21.9l1-2.39H30A9.42,9.42,0,0,1,32.3,20l.91.35c0,.07,0,0,0,.05a3,3,0,0,1-1,2.22,4.21,4.21,0,0,1-1-.24,8.84,8.84,0,0,0-1.76-.28C29.24,22.05,29,22.07,28.88,21.9Z"/><path class="cls-50" d="M32.18,22.47c.1,0,.19,0,.23-.13a7.1,7.1,0,0,0,.8-2l1.14.57a10,10,0,0,1,1.71,1.47c0,.07.09.14.06.21a14.59,14.59,0,0,1-.94,2,.3.3,0,0,1-.19.12c-.34-.06-.51-.36-.73-.57a7.16,7.16,0,0,0-.9-.75,6.54,6.54,0,0,0-.84-.52C32.37,22.76,32.15,22.72,32.18,22.47Z"/><path class="cls-49" d="M34.93,24.64a10.84,10.84,0,0,0,1.13-2.29h.12l1.59,2.06a4.21,4.21,0,0,0,.46,1.24c-.47,1-.95,2.06-1.43,3.08a.57.57,0,0,1-.28.35.36.36,0,0,1-.1-.14c-.07-.21,0-.44-.11-.66s-.09-.37-.14-.56a7.78,7.78,0,0,0-.44-1.42,5.54,5.54,0,0,0-.66-1.25C35,24.93,34.85,24.82,34.93,24.64Z"/><path class="cls-40" d="M23.29,33.42A8.25,8.25,0,0,1,22,30.8a9.55,9.55,0,0,1,.06-3.2,7.59,7.59,0,0,1,2.68-4.22,8,8,0,0,1,2.62-1.25c.22.32,0,.59-.1.85-.28.6-.59,1.19-.84,1.8a1.52,1.52,0,0,0-.15.6A9,9,0,0,0,25,27.09a4.51,4.51,0,0,0-.36,3.3,1,1,0,0,1,.06.6,6.93,6.93,0,0,0-.91,1.67C23.69,32.94,23.62,33.28,23.29,33.42Z"/><path class="cls-31" d="M26.21,25.32c-.09-.55.31-.94.47-1.4a6.76,6.76,0,0,0,.71-1.79,7.46,7.46,0,0,1,1.49-.23,5.88,5.88,0,0,1,2.39.34,8.79,8.79,0,0,0-.87,1.7,1.07,1.07,0,0,1-.29.53c-.41.15-.81,0-1.23,0a7.6,7.6,0,0,0-2.14.66A1.12,1.12,0,0,1,26.21,25.32Z"/><path class="cls-51" d="M36.52,29v.46c-.15.21,0,.47-.11.69a6.85,6.85,0,0,1-2.62,4.78l-.12.12c-.38.13-.63.49-1,.57-.22-.26-.07-.5,0-.74,1-2.19,2.06-4.4,3.09-6.6.1-.23.18-.52.52-.53a.87.87,0,0,1,.11.57C36.55,28.5,36.37,28.76,36.52,29Z"/><path class="cls-35" d="M36.41,30.12c0-.23-.1-.49.11-.69C36.49,29.66,36.61,29.91,36.41,30.12Z"/><path class="cls-52" d="M23.29,33.42c.27-.59.54-1.19.83-1.78.12-.24.22-.52.53-.61.42.19.48.67.77,1s.7.63.87,1.1c-.26.56-.5,1.13-.79,1.68-.1.18-.17.38-.39.46a8.28,8.28,0,0,1-1.71-1.58A.25.25,0,0,1,23.29,33.42Z"/><path class="cls-36" d="M25.11,35.24A15.88,15.88,0,0,0,26,33.42a.54.54,0,0,1,.27-.34,7.51,7.51,0,0,1,2,.89,1.48,1.48,0,0,1-.27.89,10.09,10.09,0,0,0-.56,1.41l-1.25-.45C25.74,35.72,25.48,35.39,25.11,35.24Z"/><path class="cls-35" d="M36.29,27.72A11.18,11.18,0,0,0,35.12,30c-.79,1.61-1.52,3.25-2.28,4.87a1.41,1.41,0,0,0-.2.75,4.51,4.51,0,0,1-2.51.8c-.41.15-.5-.09-.39-.39a9.4,9.4,0,0,1,1.1-2.28c.39-.33.89-.49,1.3-.81a4.62,4.62,0,0,0,1.72-3,1.8,1.8,0,0,1,.18-.65c.42-.78.79-1.58,1.15-2.39.13-.28.19-.68.64-.66A3.87,3.87,0,0,1,36.29,27.72Z"/><path class="cls-37" d="M30.93,33.78a20,20,0,0,0-1.09,2.29c-.12.29.08.32.29.32-.2.2-.46.07-.68.12a7.17,7.17,0,0,1-2.06-.24c-.17-.25,0-.48.07-.69.23-.53.49-1.06.73-1.59a.39.39,0,0,1,.36-.13,5.37,5.37,0,0,0,2.07-.16A.33.33,0,0,1,30.93,33.78Z"/><path class="cls-36" d="M30.13,24.4a7.6,7.6,0,0,1,.85-2,.34.34,0,0,1,.29-.15l.91.23c.38.33.91.42,1.26.8-.4.72-.73,1.47-1.13,2.19A20.9,20.9,0,0,1,30.13,24.4Z"/><path class="cls-37" d="M32.3,25.4a5,5,0,0,1,1.14-2.13,5.85,5.85,0,0,1,1.48,1.37l.23.34c-.32.62-.58,1.26-.9,1.88a1.06,1.06,0,0,1-.45.55c-.29,0-.32-.28-.44-.45a5,5,0,0,0-.77-1.1C32.47,25.72,32.3,25.61,32.3,25.4Z"/><path class="cls-35" d="M33.77,27.39a8.46,8.46,0,0,0,.84-1.64,1.22,1.22,0,0,1,.54-.77,3.66,3.66,0,0,1,.68,1.26c-.33.17-.42.52-.56.82a14.55,14.55,0,0,1-1.15,2.26A3.39,3.39,0,0,1,33.77,27.39Z"/><path class="cls-35" d="M36.52,29c-.21-.2-.08-.45-.12-.68C36.61,28.49,36.49,28.74,36.52,29Z"/><path class="cls-53" d="M32.3,25.4a4.65,4.65,0,0,1,1.16,1.48c-.19.18-.2.19-.48,0a5.25,5.25,0,0,0-2-.85,4.72,4.72,0,0,0-5.45,4.39,9.48,9.48,0,0,0,.05,1.19c0,.18.1.43-.22.46a5.87,5.87,0,0,1-.67-1,6,6,0,0,1-.19-2.92,5.56,5.56,0,0,1,1.75-2.79,5.16,5.16,0,0,1,3.42-1l.5,0A6.14,6.14,0,0,1,32.3,25.4Z"/><path class="cls-54" d="M25.32,32.06c.16-.1.13-.25.1-.41a4.86,4.86,0,0,1,7.74-4.84c.08.06.15.27.3.07l.31.51a9.65,9.65,0,0,1,.35,1.93c-.18.31-.08.67-.16,1a5,5,0,0,1-3,3.46,6.06,6.06,0,0,1-2.74.21,7.38,7.38,0,0,1-2-.91C25.94,32.74,25.52,32.5,25.32,32.06Z"/></g></g></svg>