<svg xmlns="http://www.w3.org/2000/svg" viewBox="0 0 22.22 22.24"><defs><style>.cls-1{fill:#33363a;}.cls-2{fill:#707275;}.cls-3{fill:#76787b;}.cls-4{fill:#858789;}.cls-5{fill:#949698;}.cls-6{fill:#d7e4e9;}.cls-7{fill:#febd08;}.cls-8{fill:#fefefe;}.cls-9{fill:#feda7f;}.cls-10{fill:#4e5154;}.cls-11{fill:#a6bac0;}.cls-12{fill:#44474a;}</style></defs><g id="Layer_2" data-name="Layer 2"><g id="Layer_1-2" data-name="Layer 1"><g id="mYVNNk"><path class="cls-1" d="M10.25,0h.22s.06,0,.09,0,.09,0,.13,0h.86a.17.17,0,0,0,.12,0s.07,0,.1,0h.17c.35,0,.69,0,1,.08a9.92,9.92,0,0,1,2.5.71A11.35,11.35,0,0,1,22.11,9a10,10,0,0,1,.09,1.1s0,.11,0,.17v.17s0,.06,0,.09,0,.09,0,.13v.95a.11.11,0,0,0,0,.13V12c0,.33,0,.66-.08,1a9.55,9.55,0,0,1-.6,2.23,11.08,11.08,0,0,1-2.91,4.2,10.77,10.77,0,0,1-5.72,2.75,12.28,12.28,0,0,1-2.5.07A8.33,8.33,0,0,1,9,22.09a11,11,0,0,1-5.18-2.53,11.1,11.1,0,0,1-3.33-5A8.86,8.86,0,0,1,0,11.88c0-.77,0-1.54,0-2.31A9.15,9.15,0,0,1,.7,7,11,11,0,0,1,3.61,2.81,11.1,11.1,0,0,1,9,.11,9.3,9.3,0,0,1,10.08,0C10.14,0,10.2,0,10.25,0Z"/><path class="cls-2" d="M10.69,0c0,.05-.09,0-.14,0s0,0,0,0h.15Z"/><path class="cls-2" d="M11.69,0s-.1,0-.14,0h.13s0,0,0,0Z"/><path class="cls-3" d="M22.22,10.63s0-.09,0-.14,0,0,0,0Z"/><path class="cls-3" d="M22.22,11.71c-.06,0,0-.09,0-.13Z"/><path class="cls-4" d="M10.56,0V0s-.07,0-.08,0Z"/><path class="cls-4" d="M11.69,0V0h.09S11.72,0,11.69,0Z"/><path class="cls-5" d="M22.22,10.5h0s0-.07,0-.08Z"/><path class="cls-6" d="M14,12.49a3.69,3.69,0,0,0,.27-1c0-.14.08-.16.2-.16h7c.19,0,.22.05.21.23a11.15,11.15,0,0,1-.45,2.62l0,.07a6.29,6.29,0,0,1-.69,1.14,9.64,9.64,0,0,1-1.92,1.8,12.33,12.33,0,0,1-5.26,2.11,13.69,13.69,0,0,1-3.13.13A12.77,12.77,0,0,1,6,18.5a10.86,10.86,0,0,1-3-1.81A9.31,9.31,0,0,1,1.45,15c-.17-.23-.25-.5-.4-.74a8.36,8.36,0,0,1-.42-1.91c0-.29-.05-.58-.08-.87,0-.1,0-.15.13-.14h7c.17,0,.24,0,.25.22a3.64,3.64,0,0,0,.26.91A4.6,4.6,0,0,0,9,14a2.85,2.85,0,0,0,4.85-.92A5.42,5.42,0,0,0,14,12.49Z"/><path class="cls-7" d="M17.72,4.56c0,.65,0,1.31,0,2v4.1c0,.16,0,.22-.21.22-.57,0-1.14,0-1.71,0-.16,0-.2,0-.2-.19,0-.72,0-1.45,0-2.17a4.17,4.17,0,0,0-3.61-4,4.85,4.85,0,0,0-3,.4,4.09,4.09,0,0,0-2.3,3.57c0,.73,0,1.46,0,2.19,0,.17-.05.22-.22.21-.56,0-1.13,0-1.69,0-.18,0-.21-.06-.21-.22V4.82a2.17,2.17,0,0,0,0-.26.2.2,0,0,1,0-.07,2.83,2.83,0,0,1,.94-.56A12,12,0,0,1,8.37,3a12.91,12.91,0,0,1,2.23-.25A14.17,14.17,0,0,1,13.72,3a13,13,0,0,1,2.81.86,10.1,10.1,0,0,1,1,.49.55.55,0,0,1,.21.19A.2.2,0,0,1,17.72,4.56Z"/><path class="cls-8" d="M1.05,14.28c.08,0,.08.05.1.08a8.55,8.55,0,0,0,2.62,2.83,12.18,12.18,0,0,0,5.19,2,12.65,12.65,0,0,0,3.07.14,13.15,13.15,0,0,0,4.65-1.16,10.79,10.79,0,0,0,3.41-2.45,7.16,7.16,0,0,0,1-1.39s0-.12.11-.1a9.08,9.08,0,0,1-1.14,2.47,10.24,10.24,0,0,1-7,4.73,10.31,10.31,0,0,1-9.84-3.32,10,10,0,0,1-2.15-3.65A1.55,1.55,0,0,1,1.05,14.28Z"/><path class="cls-9" d="M17.7,4.51a13.57,13.57,0,0,0-13.16,0c-.1,0-.1-.15-.1-.24,0-.37,0-.74,0-1.1a.57.57,0,0,1,.1-.31A8.26,8.26,0,0,1,6.22,1.74a10.5,10.5,0,0,1,11.38,1l.11.1a.31.31,0,0,1,.05.1,5.94,5.94,0,0,1,0,1.46S17.74,4.49,17.7,4.51Z"/><path class="cls-6" d="M9.25,13a2.58,2.58,0,0,1-.68-2.72,2.53,2.53,0,0,1,2.12-1.84A2.54,2.54,0,0,1,13,9.24a.28.28,0,0,1-.12.21c-.2.17-.33.42-.6.51s-.21-.11-.31-.17A1.58,1.58,0,0,0,9.82,12c.06.09.15.17.16.28A1.71,1.71,0,0,1,9.25,13Z"/><path class="cls-8" d="M9.25,13a5.14,5.14,0,0,1,.7-.7c.13-.05.22,0,.31.11a1.59,1.59,0,0,0,2.18-2.21c-.06-.08-.15-.16-.11-.29a6.51,6.51,0,0,1,.7-.69,2.54,2.54,0,0,1,.67,2.57,2.57,2.57,0,0,1-1.92,1.89A2.56,2.56,0,0,1,9.25,13Z"/><path class="cls-10" d="M4.53,2.86V4.51l0,0a4.14,4.14,0,0,0-1.1.71,8.31,8.31,0,0,0-2,2.16c-.11.17-.2.34-.3.51,0,0-.06,0,0-.05A10.19,10.19,0,0,1,2.87,4.5a9,9,0,0,1,1.6-1.6Z"/><path class="cls-10" d="M17.7,4.51V2.86a8.19,8.19,0,0,1,1.35,1.28,10.74,10.74,0,0,1,1.63,2.48,7.25,7.25,0,0,1,.49,1.27c0,.05,0,.06,0,.05a8.2,8.2,0,0,0-2.07-2.47c-.34-.28-.7-.53-1.06-.78a.64.64,0,0,0-.29-.13Z"/><path class="cls-11" d="M14,12.49a2.61,2.61,0,0,1-.59,1.42A2.91,2.91,0,0,1,11,15.05a3,3,0,0,1-2.77-2.43s0-.09,0-.13A3.28,3.28,0,0,0,10,14.1a3.2,3.2,0,0,0,4-1.48Z"/><path class="cls-12" d="M1.06,7.89l0,.05S1.08,8,1,8,1,7.93,1.06,7.89Z"/><path class="cls-12" d="M21.14,7.94l0-.05s.07.09,0,.11S21.16,8,21.14,7.94Z"/><path class="cls-1" d="M12.33,9.93a1.71,1.71,0,0,1,.4,1.63,1.67,1.67,0,0,1-2.66.85L10,12.32a1.68,1.68,0,0,1,2.27-2.48Z"/><path class="cls-6" d="M10.29,10.32a1.14,1.14,0,1,1,1.61,1.61c-.1,0-.16-.07-.23-.14l-1.24-1.24A.35.35,0,0,1,10.29,10.32Z"/><path class="cls-8" d="M10.29,10.32c.56.51,1.1,1,1.61,1.61a1.13,1.13,0,0,1-1.59,0A1.14,1.14,0,0,1,10.29,10.32Z"/></g></g></g></svg>